<?xml version="1.0" encoding="UTF-8"?>
<svg id="Capa_1" data-name="Capa 1" xmlns="http://www.w3.org/2000/svg" version="1.1" viewBox="0 0 1200 1200">
  <defs>
    <style>
      .cls-1 {
        fill: #6FAE9C;
        stroke-width: 0px;
      }
    </style>
  </defs>
  <path class="cls-1" d="M600.5,873.8c-36.4,0-65.8-29.5-65.8-65.8v-141.6h-141.6c-36.4,0-65.8-29.5-65.8-65.8s29.5-65.8,65.8-65.8h141.6v-141.6c0-36.4,29.5-65.8,65.8-65.8s65.8,29.5,65.8,65.8v141.6h141.6c36.4,0,65.8,29.5,65.8,65.8s-29.5,65.8-65.8,65.8h-141.6v141.6c0,36.4-29.5,65.8-65.8,65.8Z"/>
  <path class="cls-1" d="M600.5,1185c-322.3,0-584.5-262.2-584.5-584.5S278.2,16,600.5,16c322.3,0,584.5,262.2,584.5,584.5s-262.2,584.5-584.5,584.5ZM600.5,147.7c-249.7,0-452.9,203.1-452.9,452.8s203.1,452.8,452.8,452.8,452.8-203.1,452.8-452.8-203.1-452.8-452.8-452.8Z"/>
</svg>