<svg version="1.1" xmlns="http://www.w3.org/2000/svg" xmlns:xlink="http://www.w3.org/1999/xlink" x="0px" y="0px" viewBox="0 0 800 800" style="transform: matrix3d(1, 0, 0, 0, 0, 1, 0, 0, 0, 0, 1, 0, 0, 0, 0, 1); user-select: text;" xml:space="preserve" id="SVGMapa" max-width="500" min-width="300" width="500px">
<style type="text/css">
	.st0  { fill: #A373FF; }
  .st1  { fill: none; stroke: #231F20; stroke-miterlimit: 10; }
  .st2  { fill: #B773BC; }
  .st3  { fill: #F772F1; }
  .st4  { fill: #49D696; }
  .st5  { fill: #4BC7F7; }
  .st6  { fill: none; stroke: #231F20; stroke-width: 0.9929; stroke-miterlimit: 10; }
  .st7  { fill: none; stroke: #231F20; stroke-width: 0.9835; stroke-miterlimit: 10; }
  .st8  { fill: none; stroke: #231F20; stroke-width: 0.991;  stroke-miterlimit: 10; }
  .st9  { fill: none; stroke: #231F20; stroke-width: 1.0092; stroke-miterlimit: 10; }
  .st10 { fill: #F96E6E; }
  .st11 { fill: none; stroke: #231F20; stroke-width: 0.9996; stroke-miterlimit: 10; }
  .st12 { fill: none; stroke: #231F20; stroke-width: 1.0022; stroke-miterlimit: 10; }
  .st13 { fill: none; stroke: #231F20; stroke-width: 1.0017; stroke-miterlimit: 10; }
  .st14 { fill: #FCC12B; }
  .st15 { fill: none; stroke: #231F20; stroke-width: 0.9944; stroke-miterlimit: 10; }
  .st16 { fill: none; stroke: #231F20; stroke-width: 0.9862; stroke-miterlimit: 10; }
  .st17 { fill: none; stroke: #231F20; stroke-width: 0.9886; stroke-miterlimit: 10; }
  .st18 { fill: none; stroke: #231F20; stroke-width: 0.9902; stroke-miterlimit: 10; }
  .st19 { fill-rule: evenodd; clip-rule: evenodd; }
  .chunkMap , .st20{ fill: #FFFFFF; }
  .st21 { fill: #003A6D; }

  /* ← NUEVO: paths de filas sin clase asignada */
  #FILAS_4_ path:not([class]),
  #FILAS_2_ path:not([class]) {
    fill: #4B5653;
  }
</style>
<g id="INMUEBLE">
	<g id="FILAS_4_">
		<g id="FILAS_5_">
			<g>
				<g>
					<path d="M397.3,654.6h0.5v5h-0.5V654.6z"></path>
					<path d="M398.8,654.6h0.5v5h-0.5V654.6z"></path>
				</g>
				<g>
					<path d="M397.3,671.2h0.5v3.4c0,0.5,0,0.9-0.1,1.1c-0.1,0.2-0.2,0.4-0.4,0.5c-0.2,0.1-0.4,0.2-0.7,0.2c-0.2,0-0.4,0-0.6-0.1
						c-0.2-0.1-0.4-0.2-0.7-0.4l0.3-0.4c0.3,0.2,0.5,0.3,0.7,0.4c0.1,0,0.2,0.1,0.3,0.1c0.1,0,0.3,0,0.4-0.1
						c0.1-0.1,0.2-0.2,0.2-0.3c0-0.1,0.1-0.4,0.1-0.8V671.2z"></path>
					<path d="M400.6,671.2h0.5v3.4c0,0.5,0,0.9-0.1,1.1c-0.1,0.2-0.2,0.4-0.4,0.5c-0.2,0.1-0.4,0.2-0.7,0.2c-0.2,0-0.4,0-0.6-0.1
						c-0.2-0.1-0.4-0.2-0.7-0.4l0.3-0.4c0.3,0.2,0.5,0.3,0.7,0.4c0.1,0,0.2,0.1,0.3,0.1c0.1,0,0.3,0,0.4-0.1
						c0.1-0.1,0.2-0.2,0.2-0.3c0-0.1,0.1-0.4,0.1-0.8V671.2z"></path>
				</g>
				<g>
					<path d="M394.9,687.5h0.5v1.9l2-1.9h0.7l-2.4,2.2l2.6,2.8h-0.7l-2.2-2.3v2.3h-0.5V687.5z"></path>
					<path d="M398.9,687.5h0.5v1.9l2-1.9h0.7l-2.4,2.2l2.6,2.8h-0.7l-2.2-2.3v2.3h-0.5V687.5z"></path>
				</g>
				<g>
					<path d="M395.8,704.1h0.5v4.5h1.9v0.5h-2.4V704.1z"></path>
					<path d="M398.9,704.1h0.5v4.5h1.9v0.5h-2.4V704.1z"></path>
				</g>
			</g>
		</g>
		<g id="FILAS_1_">
			<g>
				<path d="M395.3,590h2.9v0.5h-2.4v1.6h2.3v0.5h-2.3v2h2.3v0.5h-2.8V590z"></path>
				<path d="M398.9,590h2.9v0.5h-2.4v1.6h2.3v0.5h-2.3v2h2.3v0.5h-2.8V590z"></path>
			</g>
			<g>
				<path d="M395.6,606.5h2.5v0.5h-2v1.6h2v0.5h-2v2.5h-0.5V606.5z"></path>
				<path d="M398.9,606.5h2.5v0.5h-2v1.6h2v0.5h-2v2.5h-0.5V606.5z"></path>
			</g>
			<g>
				<path d="M397.7,623.3l-0.4,0.4c-0.3-0.3-0.6-0.5-0.9-0.6c-0.3-0.1-0.7-0.2-1-0.2c-0.4,0-0.8,0.1-1.1,0.3
					c-0.4,0.2-0.6,0.5-0.8,0.8c-0.2,0.3-0.3,0.7-0.3,1c0,0.4,0.1,0.7,0.3,1.1c0.2,0.3,0.5,0.6,0.8,0.8c0.4,0.2,0.7,0.3,1.2,0.3
					c0.5,0,1-0.1,1.3-0.4c0.4-0.3,0.6-0.7,0.6-1.1h-1.6v-0.5h2.2c0,0.8-0.2,1.4-0.7,1.8c-0.5,0.5-1.1,0.7-1.8,0.7
					c-0.9,0-1.7-0.3-2.2-0.9c-0.4-0.5-0.6-1-0.6-1.7c0-0.5,0.1-0.9,0.4-1.3c0.2-0.4,0.6-0.7,1-1c0.4-0.2,0.9-0.3,1.4-0.3
					c0.4,0,0.8,0.1,1.2,0.2C397,622.7,397.4,623,397.7,623.3z"></path>
				<path d="M403.7,623.3l-0.4,0.4c-0.3-0.3-0.6-0.5-0.9-0.6c-0.3-0.1-0.7-0.2-1-0.2c-0.4,0-0.8,0.1-1.1,0.3
					c-0.4,0.2-0.6,0.5-0.8,0.8c-0.2,0.3-0.3,0.7-0.3,1c0,0.4,0.1,0.7,0.3,1.1c0.2,0.3,0.5,0.6,0.8,0.8c0.4,0.2,0.7,0.3,1.2,0.3
					c0.5,0,1-0.1,1.3-0.4c0.4-0.3,0.6-0.7,0.6-1.1h-1.6v-0.5h2.2c0,0.8-0.2,1.4-0.7,1.8c-0.5,0.5-1.1,0.7-1.8,0.7
					c-0.9,0-1.7-0.3-2.2-0.9c-0.4-0.5-0.6-1-0.6-1.7c0-0.5,0.1-0.9,0.4-1.3c0.2-0.4,0.6-0.7,1-1c0.4-0.2,0.9-0.3,1.4-0.3
					c0.4,0,0.8,0.1,1.2,0.2C403,622.7,403.4,623,403.7,623.3z"></path>
			</g>
			<g>
				<path d="M394.2,639h0.5v2.1h2.5V639h0.5v5h-0.5v-2.4h-2.5v2.4h-0.5V639z"></path>
				<path d="M398.9,639h0.5v2.1h2.5V639h0.5v5H402v-2.4h-2.5v2.4h-0.5V639z"></path>
			</g>
		</g>
	</g>
	<g id="FILAS_2_">
		<g>
			<path d="M398,554l-0.4,0.3c-0.2-0.3-0.5-0.5-0.8-0.6c-0.3-0.1-0.6-0.2-1-0.2c-0.4,0-0.8,0.1-1.1,0.3c-0.3,0.2-0.6,0.4-0.8,0.8
				c-0.2,0.3-0.3,0.7-0.3,1.1c0,0.6,0.2,1.1,0.6,1.5c0.4,0.4,0.9,0.6,1.6,0.6c0.7,0,1.3-0.3,1.8-0.8l0.4,0.3
				c-0.3,0.3-0.6,0.6-0.9,0.7c-0.4,0.2-0.8,0.3-1.3,0.3c-0.9,0-1.6-0.3-2.1-0.9c-0.4-0.5-0.6-1.1-0.6-1.8c0-0.7,0.3-1.3,0.8-1.8
				c0.5-0.5,1.2-0.8,1.9-0.8c0.5,0,0.9,0.1,1.3,0.3C397.4,553.4,397.7,553.6,398,554z"></path>
			<path d="M403.6,554l-0.4,0.3c-0.2-0.3-0.5-0.5-0.8-0.6c-0.3-0.1-0.6-0.2-1-0.2c-0.4,0-0.8,0.1-1.1,0.3c-0.3,0.2-0.6,0.4-0.8,0.8
				c-0.2,0.3-0.3,0.7-0.3,1.1c0,0.6,0.2,1.1,0.6,1.5c0.4,0.4,0.9,0.6,1.6,0.6c0.7,0,1.3-0.3,1.8-0.8l0.4,0.3
				c-0.3,0.3-0.6,0.6-0.9,0.7c-0.4,0.2-0.8,0.3-1.3,0.3c-0.9,0-1.6-0.3-2.1-0.9c-0.4-0.5-0.6-1.1-0.6-1.8c0-0.7,0.3-1.3,0.8-1.8
				c0.5-0.5,1.2-0.8,1.9-0.8c0.5,0,0.9,0.1,1.3,0.3C403,553.4,403.3,553.6,403.6,554z"></path>
		</g>
		<g>
			<path d="M393.8,574.6v-5h1c0.7,0,1.3,0.1,1.6,0.2c0.5,0.2,0.9,0.5,1.1,0.9c0.3,0.4,0.4,0.9,0.4,1.5c0,0.5-0.1,0.9-0.3,1.3
				c-0.2,0.4-0.5,0.7-0.8,0.8c-0.3,0.2-0.8,0.3-1.5,0.3H393.8z M394.3,574.1h0.6c0.7,0,1.2,0,1.4-0.1c0.4-0.1,0.7-0.3,0.9-0.7
				c0.2-0.3,0.3-0.7,0.3-1.2c0-0.5-0.1-0.9-0.4-1.2c-0.2-0.3-0.6-0.6-1-0.7c-0.3-0.1-0.8-0.1-1.5-0.1h-0.4V574.1z"></path>
			<path d="M398.9,574.6v-5h1c0.7,0,1.3,0.1,1.6,0.2c0.5,0.2,0.9,0.5,1.1,0.9c0.3,0.4,0.4,0.9,0.4,1.5c0,0.5-0.1,0.9-0.3,1.3
				c-0.2,0.4-0.5,0.7-0.8,0.8c-0.3,0.2-0.8,0.3-1.5,0.3H398.9z M399.4,574.1h0.6c0.7,0,1.2,0,1.4-0.1c0.4-0.1,0.7-0.3,0.9-0.7
				c0.2-0.3,0.3-0.7,0.3-1.2c0-0.5-0.1-0.9-0.4-1.2c-0.2-0.3-0.6-0.6-1-0.7c-0.3-0.1-0.8-0.1-1.5-0.1h-0.4V574.1z"></path>
		</g>
		<g id="XXX">
			<g>
				<path d="M396.5,488h0.6l1.3,2.1l1.3-2.1h0.6l-1.6,2.6v2.4h-0.5v-2.4L396.5,488z"></path>
			</g>
			<g>
				<path d="M397.1,505v-0.5h2.6l-2.1,4.5h2v0.5h-2.8l2.1-4.5H397.1z"></path>
			</g>
			<g>
				<path d="M395.9,520.9l2.3,5h-0.5l-0.8-1.6h-2.2l-0.8,1.6h-0.6l2.4-5H395.9z M395.8,522l-0.9,1.8h1.7L395.8,522z"></path>
				<path d="M401,520.9l2.3,5h-0.5l-0.8-1.6h-2.2l-0.8,1.6h-0.6l2.4-5H401z M400.9,522l-0.9,1.8h1.7L400.9,522z"></path>
			</g>
			<g>
				<path d="M395,537.5h1c0.4,0,0.7,0,0.9,0.1c0.2,0.1,0.4,0.2,0.5,0.4c0.1,0.2,0.2,0.4,0.2,0.6c0,0.2-0.1,0.4-0.2,0.6
					c-0.1,0.2-0.3,0.3-0.5,0.4c0.3,0.1,0.5,0.2,0.6,0.3c0.1,0.1,0.2,0.3,0.3,0.4c0.1,0.2,0.1,0.4,0.1,0.5c0,0.4-0.1,0.7-0.4,1
					c-0.3,0.3-0.7,0.4-1.2,0.4H395V537.5z M395.5,538v1.6h0.3c0.3,0,0.6,0,0.8-0.1c0.2-0.1,0.3-0.2,0.4-0.3c0.1-0.1,0.1-0.3,0.1-0.5
					c0-0.2-0.1-0.4-0.2-0.5c-0.2-0.1-0.4-0.2-0.8-0.2H395.5z M395.5,540.1v1.9h0.6c0.4,0,0.6,0,0.8-0.1c0.2-0.1,0.3-0.2,0.4-0.3
					c0.1-0.2,0.2-0.3,0.2-0.5c0-0.2-0.1-0.4-0.2-0.6c-0.1-0.2-0.3-0.3-0.6-0.3c-0.2,0-0.5-0.1-0.9-0.1H395.5z"></path>
				<path d="M398.9,537.5h1c0.4,0,0.7,0,0.9,0.1c0.2,0.1,0.4,0.2,0.5,0.4c0.1,0.2,0.2,0.4,0.2,0.6c0,0.2-0.1,0.4-0.2,0.6
					c-0.1,0.2-0.3,0.3-0.5,0.4c0.3,0.1,0.5,0.2,0.6,0.3c0.1,0.1,0.2,0.3,0.3,0.4c0.1,0.2,0.1,0.4,0.1,0.5c0,0.4-0.1,0.7-0.4,1
					c-0.3,0.3-0.7,0.4-1.2,0.4h-1.4V537.5z M399.4,538v1.6h0.3c0.3,0,0.6,0,0.8-0.1c0.2-0.1,0.3-0.2,0.4-0.3
					c0.1-0.1,0.1-0.3,0.1-0.5c0-0.2-0.1-0.4-0.2-0.5c-0.2-0.1-0.4-0.2-0.8-0.2H399.4z M399.4,540.1v1.9h0.6c0.4,0,0.6,0,0.8-0.1
					c0.2-0.1,0.3-0.2,0.4-0.3c0.1-0.2,0.2-0.3,0.2-0.5c0-0.2-0.1-0.4-0.2-0.6c-0.1-0.2-0.3-0.3-0.6-0.3c-0.2,0-0.5-0.1-0.9-0.1
					H399.4z"></path>
			</g>
		</g>
	</g>
	<g id="FILAS">
		<g>
			<path d="M396.1,439.5h0.5l1.7,3.9l1.7-3.9h0.5l-2.2,5h-0.1L396.1,439.5z"></path>
		</g>
		<g>
			<path d="M395.3,455.9h0.5l1,3.6l1.4-3.6h0.1l1.4,3.6l1-3.6h0.5l-1.4,5h-0.1l-1.5-3.8l-1.5,3.8h-0.1L395.3,455.9z"></path>
		</g>
		<g>
			<path d="M396.6,472.4h0.6l1.2,1.9l1.2-1.9h0.6l-1.5,2.4l1.6,2.6h-0.6l-1.3-2.1l-1.3,2.1h-0.6l1.6-2.6L396.6,472.4z"></path>
		</g>
		<g>
			<g>
				<path d="M396.9,342.3h1c0.6,0,1,0,1.2,0.1c0.3,0.1,0.5,0.2,0.7,0.4c0.2,0.2,0.3,0.5,0.3,0.8c0,0.3-0.1,0.6-0.3,0.8
					c-0.2,0.2-0.4,0.4-0.7,0.4c-0.2,0.1-0.7,0.1-1.3,0.1h-0.4v2.3h-0.5V342.3z M397.4,342.8v1.7l0.8,0c0.3,0,0.6,0,0.8-0.1
					c0.2-0.1,0.3-0.2,0.4-0.3c0.1-0.1,0.1-0.3,0.1-0.5c0-0.2,0-0.3-0.1-0.5c-0.1-0.1-0.2-0.2-0.4-0.3c-0.1-0.1-0.4-0.1-0.7-0.1
					H397.4z"></path>
			</g>
			<g>
				<path d="M400.1,362.4l0.7,0.9h-0.6l-0.5-0.6c-0.4,0.3-0.9,0.4-1.4,0.4c-0.7,0-1.4-0.3-1.9-0.8c-0.5-0.5-0.8-1.1-0.8-1.8
					c0-0.5,0.1-0.9,0.4-1.3c0.2-0.4,0.6-0.7,1-1c0.4-0.2,0.8-0.3,1.3-0.3c0.7,0,1.4,0.3,1.9,0.8c0.5,0.5,0.8,1.1,0.8,1.9
					c0,0.4-0.1,0.7-0.2,1.1C400.6,361.8,400.4,362.1,400.1,362.4z M399.8,362c0.4-0.4,0.7-0.9,0.7-1.6c0-0.4-0.1-0.8-0.3-1.1
					c-0.2-0.3-0.4-0.6-0.8-0.8c-0.3-0.2-0.7-0.3-1.1-0.3c-0.4,0-0.7,0.1-1.1,0.3c-0.3,0.2-0.6,0.5-0.8,0.8c-0.2,0.3-0.3,0.7-0.3,1.1
					c0,0.6,0.2,1.1,0.6,1.5c0.4,0.4,0.9,0.6,1.5,0.6c0.4,0,0.8-0.1,1.1-0.3l-1.1-1.4h0.6L399.8,362z"></path>
			</g>
			<g>
				<path d="M396.9,374.5h1c0.6,0,0.9,0,1.1,0.1c0.3,0.1,0.5,0.2,0.7,0.4c0.2,0.2,0.3,0.5,0.3,0.8c0,0.3-0.1,0.5-0.2,0.7
					c-0.1,0.2-0.3,0.4-0.5,0.5c-0.2,0.1-0.6,0.2-1,0.2l1.8,2.3h-0.6l-1.8-2.3h-0.3v2.3h-0.5V374.5z M397.4,375v1.7l0.9,0
					c0.3,0,0.6,0,0.7-0.1c0.2-0.1,0.3-0.2,0.4-0.3c0.1-0.1,0.1-0.3,0.1-0.5c0-0.2,0-0.3-0.1-0.5c-0.1-0.1-0.2-0.2-0.4-0.3
					c-0.1-0.1-0.4-0.1-0.7-0.1H397.4z"></path>
			</g>
			<g>
				<path d="M396.7,394.9l0.4-0.3c0.3,0.6,0.6,0.8,1,0.8c0.2,0,0.3,0,0.5-0.1c0.1-0.1,0.3-0.2,0.3-0.3c0.1-0.1,0.1-0.3,0.1-0.4
					c0-0.2-0.1-0.3-0.2-0.5c-0.2-0.2-0.4-0.5-0.9-0.8c-0.4-0.3-0.7-0.5-0.8-0.7c-0.2-0.2-0.3-0.5-0.3-0.8c0-0.2,0.1-0.4,0.2-0.6
					c0.1-0.2,0.3-0.3,0.4-0.4c0.2-0.1,0.4-0.2,0.6-0.2c0.2,0,0.5,0.1,0.7,0.2c0.2,0.1,0.4,0.3,0.7,0.6l-0.4,0.3
					c-0.2-0.2-0.3-0.4-0.5-0.5c-0.1-0.1-0.3-0.1-0.4-0.1c-0.2,0-0.4,0.1-0.5,0.2c-0.1,0.1-0.2,0.3-0.2,0.5c0,0.1,0,0.2,0.1,0.3
					c0,0.1,0.1,0.2,0.2,0.3c0.1,0.1,0.3,0.2,0.6,0.5c0.4,0.3,0.7,0.6,0.9,0.9c0.2,0.2,0.2,0.5,0.2,0.8c0,0.4-0.1,0.7-0.4,0.9
					c-0.3,0.3-0.6,0.4-1,0.4c-0.3,0-0.6-0.1-0.8-0.2C397.1,395.6,396.9,395.3,396.7,394.9z"></path>
			</g>
			<g>
				<path d="M397,407.9v-0.5h2.7v0.5h-1.1v4.5h-0.5v-4.5H397z"></path>
			</g>
			<g>
				<path d="M396.7,423h0.5v3c0,0.4,0,0.6,0,0.7c0,0.2,0.1,0.4,0.2,0.5c0.1,0.1,0.2,0.2,0.4,0.3c0.2,0.1,0.4,0.1,0.6,0.1
					c0.2,0,0.3,0,0.5-0.1c0.2-0.1,0.3-0.2,0.4-0.3c0.1-0.1,0.2-0.3,0.2-0.5c0-0.1,0.1-0.4,0.1-0.8v-3h0.5v3c0,0.4,0,0.8-0.1,1.1
					c-0.1,0.3-0.3,0.5-0.5,0.7c-0.3,0.2-0.6,0.3-1,0.3c-0.4,0-0.7-0.1-1-0.3c-0.3-0.2-0.5-0.4-0.6-0.8c-0.1-0.2-0.1-0.5-0.1-1.1V423
					z"></path>
			</g>
		</g>
		<g>
			<path d="M395.5,297.9l0.7-5h0.1l2,4.1l2-4.1h0.1l0.7,5h-0.5l-0.5-3.6l-1.8,3.6h-0.1l-1.8-3.6l-0.5,3.6H395.5z"></path>
		</g>
		<g>
			<path d="M396.4,314.4v-5h0.1l3.3,3.8v-3.8h0.5v5h-0.1l-3.3-3.8v3.8H396.4z"></path>
		</g>
		<g>
			<path d="M398.3,325.7c0.8,0,1.4,0.3,1.9,0.8c0.5,0.5,0.8,1.1,0.8,1.9c0,0.7-0.3,1.4-0.8,1.9c-0.5,0.5-1.1,0.8-1.9,0.8
				c-0.7,0-1.4-0.3-1.9-0.8c-0.5-0.5-0.8-1.1-0.8-1.8c0-0.5,0.1-0.9,0.3-1.3c0.2-0.4,0.5-0.7,1-1
				C397.4,325.8,397.8,325.7,398.3,325.7z M398.3,326.1c-0.4,0-0.7,0.1-1.1,0.3c-0.3,0.2-0.6,0.5-0.8,0.8c-0.2,0.3-0.3,0.7-0.3,1.1
				c0,0.6,0.2,1.1,0.6,1.5c0.4,0.4,0.9,0.6,1.5,0.6c0.4,0,0.7-0.1,1.1-0.3c0.3-0.2,0.6-0.4,0.8-0.8c0.2-0.3,0.3-0.7,0.3-1.1
				c0-0.4-0.1-0.8-0.3-1.1c-0.2-0.3-0.4-0.6-0.8-0.8C399.1,326.2,398.7,326.1,398.3,326.1z"></path>
		</g>
	</g>
	<g id="FILAS_3_">
		<g>
			<path d="M396.9,260.7h0.5v1.9l2-1.9h0.7l-2.4,2.2l2.6,2.8h-0.7l-2.2-2.3v2.3h-0.5V260.7z"></path>
		</g>
		<g>
			<path d="M397.3,277.3h0.5v4.5h1.9v0.5h-2.4V277.3z"></path>
		</g>
		<g>
			<g>
				<path d="M398.4,97.7l2.3,5h-0.5l-0.8-1.6h-2.2l-0.8,1.6h-0.6l2.4-5H398.4z M398.4,98.8l-0.9,1.8h1.7L398.4,98.8z"></path>
			</g>
			<g>
				<path d="M397,114.3h1c0.4,0,0.7,0,0.9,0.1c0.2,0.1,0.4,0.2,0.5,0.4c0.1,0.2,0.2,0.4,0.2,0.6c0,0.2-0.1,0.4-0.2,0.6
					c-0.1,0.2-0.3,0.3-0.5,0.4c0.3,0.1,0.5,0.2,0.6,0.3c0.1,0.1,0.2,0.3,0.3,0.4c0.1,0.2,0.1,0.4,0.1,0.5c0,0.4-0.1,0.7-0.4,1
					c-0.3,0.3-0.7,0.4-1.2,0.4H397V114.3z M397.5,114.8v1.6h0.3c0.3,0,0.6,0,0.8-0.1c0.2-0.1,0.3-0.2,0.4-0.3
					c0.1-0.1,0.1-0.3,0.1-0.5c0-0.2-0.1-0.4-0.2-0.5c-0.2-0.1-0.4-0.2-0.8-0.2H397.5z M397.5,116.9v1.9h0.6c0.4,0,0.6,0,0.8-0.1
					c0.2-0.1,0.3-0.2,0.4-0.3c0.1-0.2,0.2-0.3,0.2-0.5c0-0.2-0.1-0.4-0.2-0.6c-0.1-0.2-0.3-0.3-0.6-0.3c-0.2,0-0.5-0.1-0.9-0.1
					H397.5z"></path>
			</g>
			<g>
				<path d="M400.8,131.6l-0.4,0.3c-0.2-0.3-0.5-0.5-0.8-0.6c-0.3-0.1-0.6-0.2-1-0.2c-0.4,0-0.8,0.1-1.1,0.3
					c-0.3,0.2-0.6,0.4-0.8,0.8c-0.2,0.3-0.3,0.7-0.3,1.1c0,0.6,0.2,1.1,0.6,1.5c0.4,0.4,0.9,0.6,1.6,0.6c0.7,0,1.3-0.3,1.8-0.8
					l0.4,0.3c-0.3,0.3-0.6,0.6-0.9,0.7c-0.4,0.2-0.8,0.3-1.3,0.3c-0.9,0-1.6-0.3-2.1-0.9c-0.4-0.5-0.6-1.1-0.6-1.8
					c0-0.7,0.3-1.3,0.8-1.8c0.5-0.5,1.2-0.8,1.9-0.8c0.5,0,0.9,0.1,1.3,0.3C400.2,131,400.5,131.3,400.8,131.6z"></path>
			</g>
			<g>
				<path d="M396.4,152.2v-5h1c0.7,0,1.3,0.1,1.6,0.2c0.5,0.2,0.9,0.5,1.1,0.9c0.3,0.4,0.4,0.9,0.4,1.5c0,0.5-0.1,0.9-0.3,1.3
					c-0.2,0.4-0.5,0.7-0.8,0.8c-0.3,0.2-0.8,0.3-1.5,0.3H396.4z M396.8,151.7h0.6c0.7,0,1.2,0,1.4-0.1c0.4-0.1,0.7-0.3,0.9-0.7
					c0.2-0.3,0.3-0.7,0.3-1.2c0-0.5-0.1-0.9-0.4-1.2c-0.2-0.3-0.6-0.6-1-0.7c-0.3-0.1-0.8-0.1-1.5-0.1h-0.4V151.7z"></path>
			</g>
			<g>
				<path d="M397.1,162.8h2.9v0.5h-2.4v1.6h2.3v0.5h-2.3v2h2.3v0.5h-2.8V162.8z"></path>
			</g>
			<g>
				<path d="M397.3,179.3h2.5v0.5h-2v1.6h2v0.5h-2v2.5h-0.5V179.3z"></path>
			</g>
			<g>
				<path d="M400.7,196.5l-0.4,0.4c-0.3-0.3-0.6-0.5-0.9-0.6c-0.3-0.1-0.7-0.2-1-0.2c-0.4,0-0.8,0.1-1.1,0.3
					c-0.4,0.2-0.6,0.5-0.8,0.8c-0.2,0.3-0.3,0.7-0.3,1c0,0.4,0.1,0.7,0.3,1.1c0.2,0.3,0.5,0.6,0.8,0.8c0.4,0.2,0.7,0.3,1.2,0.3
					c0.5,0,1-0.1,1.3-0.4c0.4-0.3,0.6-0.7,0.6-1.1h-1.6v-0.5h2.2c0,0.8-0.2,1.4-0.7,1.8c-0.5,0.5-1.1,0.7-1.8,0.7
					c-0.9,0-1.7-0.3-2.2-0.9c-0.4-0.5-0.6-1-0.6-1.7c0-0.5,0.1-0.9,0.4-1.3c0.2-0.4,0.6-0.7,1-1c0.4-0.2,0.9-0.3,1.4-0.3
					c0.4,0,0.8,0.1,1.2,0.2C400,196,400.4,196.2,400.7,196.5z"></path>
			</g>
			<g>
				<path d="M396.6,212.3h0.5v2.1h2.5v-2.1h0.5v5h-0.5v-2.4h-2.5v2.4h-0.5V212.3z"></path>
			</g>
			<g>
				<path d="M398.1,227.8h0.5v5h-0.5V227.8z"></path>
			</g>
			<g>
				<path d="M398.9,244.4h0.5v3.4c0,0.5,0,0.9-0.1,1.1c-0.1,0.2-0.2,0.4-0.4,0.5c-0.2,0.1-0.4,0.2-0.7,0.2c-0.2,0-0.4,0-0.6-0.1
					c-0.2-0.1-0.4-0.2-0.7-0.4l0.3-0.4c0.3,0.2,0.5,0.3,0.7,0.4c0.1,0,0.2,0.1,0.3,0.1c0.1,0,0.3,0,0.4-0.1c0.1-0.1,0.2-0.2,0.2-0.3
					c0-0.1,0.1-0.4,0.1-0.8V244.4z"></path>
			</g>
		</g>
	</g>
</g>
<g id="PERS_CON_DISCAPACIDAD">
	<g id="PD">
		
			<rect id="PDISCA1" x="101.8" y="75.8" class="PDISCA chunkMap" width="19.6" height="118.1"></rect>
		<g id="_x33__00000102541552479062176900000008235014061141441176_">
			<path d="M109.7,174.4h-7.2v-2.3c0-0.9,0-1.5,0.1-1.7c0.1-0.4,0.3-0.8,0.7-1c0.4-0.3,0.8-0.4,1.4-0.4c0.4,0,0.8,0.1,1.1,0.2
				c0.3,0.2,0.5,0.4,0.7,0.6c0.2,0.2,0.3,0.5,0.3,0.7c0.1,0.3,0.1,0.8,0.1,1.5v0.9h2.7V174.4z M103.7,173h2v-0.8c0-0.6,0-1-0.1-1.1
				c-0.1-0.2-0.2-0.3-0.4-0.5c-0.2-0.1-0.3-0.2-0.6-0.2c-0.3,0-0.5,0.1-0.6,0.2c-0.2,0.2-0.3,0.3-0.3,0.6c0,0.2,0,0.5,0,1V173z"></path>
			<path d="M109.7,167.7h-7.2v-5.3h1.2v3.9h1.6v-3.6h1.2v3.6h1.9v-4h1.2V167.7z"></path>
			<path d="M109.7,161.1h-7.2v-3c0-0.8,0.1-1.3,0.2-1.7c0.1-0.3,0.4-0.6,0.7-0.8c0.3-0.2,0.7-0.3,1.1-0.3c0.5,0,1,0.2,1.3,0.5
				s0.6,0.8,0.7,1.4c0.2-0.3,0.4-0.6,0.6-0.8c0.2-0.2,0.6-0.5,1.2-0.8l1.4-0.9v1.7l-1.6,1c-0.6,0.4-0.9,0.6-1.1,0.8
				c-0.1,0.1-0.2,0.3-0.3,0.4c-0.1,0.2-0.1,0.4-0.1,0.7v0.3h3V161.1z M105.6,159.6v-1.1c0-0.7,0-1.1-0.1-1.3
				c-0.1-0.2-0.2-0.3-0.3-0.4c-0.1-0.1-0.3-0.1-0.5-0.1c-0.2,0-0.4,0.1-0.6,0.2c-0.1,0.1-0.2,0.3-0.3,0.5c0,0.1,0,0.5,0,1.1v1.1
				H105.6z"></path>
			<path d="M107.4,154.2l-0.1-1.4c0.5-0.1,0.8-0.3,1-0.5c0.2-0.3,0.3-0.6,0.3-1c0-0.5-0.1-0.8-0.3-1.1c-0.2-0.2-0.4-0.4-0.7-0.4
				c-0.2,0-0.3,0-0.4,0.1c-0.1,0.1-0.2,0.3-0.3,0.5c-0.1,0.2-0.2,0.6-0.3,1.2c-0.2,0.8-0.4,1.3-0.7,1.6c-0.4,0.4-0.9,0.7-1.4,0.7
				c-0.4,0-0.7-0.1-1-0.3c-0.3-0.2-0.6-0.5-0.7-0.9s-0.2-0.9-0.2-1.4c0-0.9,0.2-1.6,0.6-2c0.4-0.5,0.9-0.7,1.6-0.7l0.1,1.4
				c-0.4,0.1-0.6,0.2-0.8,0.4c-0.2,0.2-0.2,0.5-0.2,0.9c0,0.4,0.1,0.7,0.3,1c0.1,0.2,0.3,0.2,0.4,0.2c0.2,0,0.3-0.1,0.4-0.2
				c0.2-0.2,0.3-0.6,0.5-1.3c0.2-0.7,0.3-1.2,0.5-1.6c0.2-0.3,0.4-0.6,0.7-0.8s0.7-0.3,1.1-0.3c0.4,0,0.8,0.1,1.2,0.3
				c0.4,0.2,0.6,0.6,0.8,1s0.3,0.9,0.3,1.6c0,0.9-0.2,1.6-0.6,2.1C108.8,153.8,108.2,154.1,107.4,154.2z"></path>
			<path d="M106.1,147.5c-0.7,0-1.3-0.1-1.8-0.3c-0.4-0.2-0.7-0.4-1-0.7c-0.3-0.3-0.5-0.6-0.6-0.9c-0.2-0.4-0.3-1-0.3-1.5
				c0-1.1,0.3-1.9,1-2.5c0.7-0.6,1.6-1,2.7-1c1.2,0,2.1,0.3,2.7,0.9c0.7,0.6,1,1.5,1,2.5c0,1.1-0.3,1.9-1,2.5
				C108.2,147.1,107.3,147.5,106.1,147.5z M106.1,146c0.8,0,1.4-0.2,1.8-0.6c0.4-0.4,0.6-0.8,0.6-1.4c0-0.6-0.2-1-0.6-1.4
				s-1-0.6-1.9-0.6c-0.8,0-1.4,0.2-1.8,0.5s-0.6,0.8-0.6,1.4c0,0.6,0.2,1.1,0.6,1.4C104.7,145.8,105.3,146,106.1,146z"></path>
			<path d="M109.7,139.4h-7.2V138l4.8-2.9h-4.8v-1.3h7.2v1.5L105,138h4.7V139.4z"></path>
			<path d="M109.7,125.7v1.6l-1.6,0.6v2.9l1.6,0.6v1.5l-7.2-2.8v-1.5L109.7,125.7z M106.9,128.4l-2.7,1l2.7,1V128.4z"></path>
			<path d="M107.4,125.3l-0.1-1.4c0.5-0.1,0.8-0.3,1-0.5c0.2-0.3,0.3-0.6,0.3-1c0-0.5-0.1-0.8-0.3-1.1c-0.2-0.2-0.4-0.4-0.7-0.4
				c-0.2,0-0.3,0-0.4,0.1c-0.1,0.1-0.2,0.3-0.3,0.5c-0.1,0.2-0.2,0.6-0.3,1.2c-0.2,0.8-0.4,1.3-0.7,1.6c-0.4,0.4-0.9,0.7-1.4,0.7
				c-0.4,0-0.7-0.1-1-0.3c-0.3-0.2-0.6-0.5-0.7-0.9s-0.2-0.9-0.2-1.4c0-0.9,0.2-1.6,0.6-2c0.4-0.5,0.9-0.7,1.6-0.7l0.1,1.4
				c-0.4,0.1-0.6,0.2-0.8,0.4c-0.2,0.2-0.2,0.5-0.2,0.9c0,0.4,0.1,0.7,0.3,1c0.1,0.2,0.3,0.2,0.4,0.2c0.2,0,0.3-0.1,0.4-0.2
				c0.2-0.2,0.3-0.6,0.5-1.3c0.2-0.7,0.3-1.2,0.5-1.6c0.2-0.3,0.4-0.6,0.7-0.8s0.7-0.3,1.1-0.3c0.4,0,0.8,0.1,1.2,0.3
				c0.4,0.2,0.6,0.6,0.8,1s0.3,0.9,0.3,1.6c0,0.9-0.2,1.6-0.6,2.1C108.8,124.9,108.2,125.2,107.4,125.3z"></path>
			<path d="M107.1,110.9l0.4-1.4c0.8,0.2,1.4,0.6,1.7,1.1c0.4,0.5,0.6,1.1,0.6,1.9c0,1-0.3,1.7-1,2.3c-0.6,0.6-1.5,0.9-2.7,0.9
				c-1.2,0-2.1-0.3-2.8-0.9c-0.7-0.6-1-1.4-1-2.4c0-0.9,0.3-1.6,0.8-2.1c0.3-0.3,0.7-0.6,1.3-0.7l0.3,1.4c-0.4,0.1-0.7,0.3-0.9,0.5
				c-0.2,0.3-0.3,0.6-0.3,1c0,0.5,0.2,1,0.6,1.3c0.4,0.3,1,0.5,1.9,0.5c0.9,0,1.5-0.2,1.9-0.5c0.4-0.3,0.6-0.7,0.6-1.3
				c0-0.4-0.1-0.7-0.4-1S107.6,111,107.1,110.9z"></path>
			<path d="M106.1,108.6c-0.7,0-1.3-0.1-1.8-0.3c-0.4-0.2-0.7-0.4-1-0.7c-0.3-0.3-0.5-0.6-0.6-0.9c-0.2-0.4-0.3-1-0.3-1.5
				c0-1.1,0.3-1.9,1-2.5c0.7-0.6,1.6-1,2.7-1c1.2,0,2.1,0.3,2.7,0.9c0.7,0.6,1,1.5,1,2.5c0,1.1-0.3,1.9-1,2.5
				C108.2,108.2,107.3,108.6,106.1,108.6z M106.1,107.1c0.8,0,1.4-0.2,1.8-0.6c0.4-0.4,0.6-0.8,0.6-1.4c0-0.6-0.2-1-0.6-1.4
				s-1-0.6-1.9-0.6c-0.8,0-1.4,0.2-1.8,0.5s-0.6,0.8-0.6,1.4c0,0.6,0.2,1.1,0.6,1.4C104.7,106.9,105.3,107.1,106.1,107.1z"></path>
			<path d="M109.7,100.5h-7.2v-1.4l4.8-2.9h-4.8v-1.3h7.2v1.5l-4.7,2.9h4.7V100.5z"></path>
			<path d="M112.5,171.8v-2.6c0-0.6,0-1.1,0.1-1.4c0.1-0.4,0.3-0.8,0.7-1.1c0.3-0.3,0.7-0.5,1.2-0.7s1-0.2,1.7-0.2
				c0.6,0,1.1,0.1,1.5,0.2c0.5,0.2,0.9,0.4,1.3,0.8c0.2,0.3,0.4,0.6,0.6,1c0.1,0.3,0.2,0.7,0.2,1.3v2.7H112.5z M113.7,170.4h4.7
				v-1.1c0-0.4,0-0.7-0.1-0.9c-0.1-0.2-0.2-0.4-0.3-0.6s-0.4-0.3-0.7-0.4s-0.8-0.1-1.3-0.1s-1,0-1.3,0.1s-0.5,0.2-0.7,0.4
				c-0.2,0.2-0.3,0.4-0.3,0.7c0,0.2-0.1,0.6-0.1,1.2V170.4z"></path>
			<path d="M119.7,164.6h-7.2v-1.4h7.2V164.6z"></path>
			<path d="M117.4,162.2l-0.1-1.4c0.5-0.1,0.8-0.3,1-0.5c0.2-0.3,0.3-0.6,0.3-1c0-0.5-0.1-0.8-0.3-1.1c-0.2-0.2-0.4-0.4-0.7-0.4
				c-0.2,0-0.3,0-0.4,0.1c-0.1,0.1-0.2,0.3-0.3,0.5c-0.1,0.2-0.2,0.6-0.3,1.2c-0.2,0.8-0.4,1.3-0.7,1.6c-0.4,0.4-0.9,0.7-1.4,0.7
				c-0.4,0-0.7-0.1-1-0.3c-0.3-0.2-0.6-0.5-0.7-0.9s-0.2-0.9-0.2-1.4c0-0.9,0.2-1.6,0.6-2c0.4-0.5,0.9-0.7,1.6-0.7l0.1,1.4
				c-0.4,0.1-0.6,0.2-0.8,0.4c-0.2,0.2-0.2,0.5-0.2,0.9c0,0.4,0.1,0.7,0.3,1c0.1,0.2,0.3,0.2,0.4,0.2c0.2,0,0.3-0.1,0.4-0.2
				c0.2-0.2,0.3-0.6,0.5-1.3c0.2-0.7,0.3-1.2,0.5-1.6c0.2-0.3,0.4-0.6,0.7-0.8s0.7-0.3,1.1-0.3c0.4,0,0.8,0.1,1.2,0.3
				c0.4,0.2,0.6,0.6,0.8,1s0.3,0.9,0.3,1.6c0,0.9-0.2,1.6-0.6,2.1C118.8,161.8,118.2,162.1,117.4,162.2z"></path>
			<path d="M117.1,150.6l0.4-1.4c0.8,0.2,1.4,0.6,1.7,1.1c0.4,0.5,0.6,1.1,0.6,1.9c0,1-0.3,1.7-1,2.3c-0.6,0.6-1.5,0.9-2.7,0.9
				c-1.2,0-2.1-0.3-2.8-0.9c-0.7-0.6-1-1.4-1-2.4c0-0.9,0.3-1.6,0.8-2.1c0.3-0.3,0.7-0.6,1.3-0.7l0.3,1.4c-0.4,0.1-0.7,0.3-0.9,0.5
				c-0.2,0.3-0.3,0.6-0.3,1c0,0.5,0.2,1,0.6,1.3c0.4,0.3,1,0.5,1.9,0.5c0.9,0,1.5-0.2,1.9-0.5c0.4-0.3,0.6-0.7,0.6-1.3
				c0-0.4-0.1-0.7-0.4-1S117.6,150.7,117.1,150.6z"></path>
			<path d="M119.7,141.5v1.6l-1.6,0.6v2.9l1.6,0.6v1.5l-7.2-2.8v-1.5L119.7,141.5z M116.9,144.1l-2.7,1l2.7,1V144.1z"></path>
			<path d="M119.7,140.7h-7.2v-2.3c0-0.9,0-1.5,0.1-1.7c0.1-0.4,0.3-0.8,0.7-1c0.4-0.3,0.8-0.4,1.4-0.4c0.4,0,0.8,0.1,1.1,0.2
				c0.3,0.2,0.5,0.4,0.7,0.6c0.2,0.2,0.3,0.5,0.3,0.7c0.1,0.3,0.1,0.8,0.1,1.5v0.9h2.7V140.7z M113.7,139.2h2v-0.8
				c0-0.6,0-1-0.1-1.1c-0.1-0.2-0.2-0.3-0.4-0.5c-0.2-0.1-0.3-0.2-0.6-0.2c-0.3,0-0.5,0.1-0.6,0.2c-0.2,0.2-0.3,0.3-0.3,0.6
				c0,0.2,0,0.5,0,1V139.2z"></path>
			<path d="M119.7,128.3v1.6l-1.6,0.6v2.9l1.6,0.6v1.5l-7.2-2.8v-1.5L119.7,128.3z M116.9,131l-2.7,1l2.7,1V131z"></path>
			<path d="M117.1,123l0.4-1.4c0.8,0.2,1.4,0.6,1.7,1.1c0.4,0.5,0.6,1.1,0.6,1.9c0,1-0.3,1.7-1,2.3c-0.6,0.6-1.5,0.9-2.7,0.9
				c-1.2,0-2.1-0.3-2.8-0.9c-0.7-0.6-1-1.4-1-2.4c0-0.9,0.3-1.6,0.8-2.1c0.3-0.3,0.7-0.6,1.3-0.7l0.3,1.4c-0.4,0.1-0.7,0.3-0.9,0.5
				c-0.2,0.3-0.3,0.6-0.3,1c0,0.5,0.2,1,0.6,1.3c0.4,0.3,1,0.5,1.9,0.5c0.9,0,1.5-0.2,1.9-0.5c0.4-0.3,0.6-0.7,0.6-1.3
				c0-0.4-0.1-0.7-0.4-1S117.6,123.1,117.1,123z"></path>
			<path d="M119.7,120.4h-7.2v-1.4h7.2V120.4z"></path>
			<path d="M112.5,117.5v-2.6c0-0.6,0-1.1,0.1-1.4c0.1-0.4,0.3-0.8,0.7-1.1c0.3-0.3,0.7-0.5,1.2-0.7s1-0.2,1.7-0.2
				c0.6,0,1.1,0.1,1.5,0.2c0.5,0.2,0.9,0.4,1.3,0.8c0.2,0.3,0.4,0.6,0.6,1c0.1,0.3,0.2,0.7,0.2,1.3v2.7H112.5z M113.7,116.1h4.7V115
				c0-0.4,0-0.7-0.1-0.9c-0.1-0.2-0.2-0.4-0.3-0.6s-0.4-0.3-0.7-0.4s-0.8-0.1-1.3-0.1s-1,0-1.3,0.1s-0.5,0.2-0.7,0.4
				c-0.2,0.2-0.3,0.4-0.3,0.7c0,0.2-0.1,0.6-0.1,1.2V116.1z"></path>
			<path d="M119.7,103.9v1.6l-1.6,0.6v2.9l1.6,0.6v1.5l-7.2-2.8v-1.5L119.7,103.9z M116.9,106.5l-2.7,1l2.7,1V106.5z"></path>
			<path d="M112.5,103.1v-2.6c0-0.6,0-1.1,0.1-1.4c0.1-0.4,0.3-0.8,0.7-1.1c0.3-0.3,0.7-0.5,1.2-0.7s1-0.2,1.7-0.2
				c0.6,0,1.1,0.1,1.5,0.2c0.5,0.2,0.9,0.4,1.3,0.8c0.2,0.3,0.4,0.6,0.6,1c0.1,0.3,0.2,0.7,0.2,1.3v2.7H112.5z M113.7,101.6h4.7
				v-1.1c0-0.4,0-0.7-0.1-0.9c-0.1-0.2-0.2-0.4-0.3-0.6s-0.4-0.3-0.7-0.4s-0.8-0.1-1.3-0.1s-1,0-1.3,0.1s-0.5,0.2-0.7,0.4
				c-0.2,0.2-0.3,0.4-0.3,0.7c0,0.2-0.1,0.6-0.1,1.2V101.6z"></path>
		</g>
		<line id="STAGE_00000117649178808867102400000006355313515406280635_" class="st1" x1="121.3" y1="135.1" x2="121.3" y2="135.1"></line>
		
			<line id="CENTER_00000170972084864889114800000004247669987308782732_" class="st1" x1="101.8" y1="135.1" x2="101.8" y2="135.1"></line>
	<label class="idBloque">146621</label><label class="nombreBloque">PD</label></g>
<label>35543</label></g>
<g id="BALCÓN_CENTRAL">
	<g id="F1">
		<polygon id="BCENTRAL" class="BCENTAL chunkMap" points="710.7,721.5 86.5,721.5 45.9,795 45.9,795.1 750.5,795.1 		"></polygon>
		<g id="_x33__4_">
			<path d="M311.6,755.4h5.5c1.1,0,1.9,0,2.4,0.1c0.5,0.1,1,0.3,1.4,0.6c0.4,0.3,0.8,0.7,1.1,1.2c0.3,0.5,0.4,1,0.4,1.6
				c0,0.6-0.2,1.2-0.5,1.8c-0.3,0.5-0.8,0.9-1.4,1.2c0.8,0.2,1.5,0.7,1.9,1.3c0.5,0.6,0.7,1.3,0.7,2.1c0,0.6-0.1,1.2-0.4,1.8
				c-0.3,0.6-0.7,1.1-1.2,1.4c-0.5,0.4-1.1,0.6-1.9,0.7c-0.5,0-1.6,0.1-3.4,0.1h-4.7V755.4z M314.4,757.7v3.2h1.8c1.1,0,1.8,0,2,0
				c0.5-0.1,0.9-0.2,1.1-0.5c0.3-0.3,0.4-0.6,0.4-1.1c0-0.4-0.1-0.8-0.4-1s-0.6-0.4-1-0.5c-0.3,0-1.1,0-2.4,0H314.4z M314.4,763.2
				v3.7h2.6c1,0,1.6,0,1.9-0.1c0.4-0.1,0.8-0.3,1-0.6c0.3-0.3,0.4-0.7,0.4-1.2c0-0.4-0.1-0.8-0.3-1.1c-0.2-0.3-0.5-0.5-0.9-0.6
				c-0.4-0.1-1.2-0.2-2.5-0.2H314.4z"></path>
			<path d="M338,769.2h-3l-1.2-3.1h-5.5l-1.1,3.1h-3l5.4-13.8h2.9L338,769.2z M332.8,763.7l-1.9-5.1l-1.9,5.1H332.8z"></path>
			<path d="M339.5,769.2v-13.7h2.8v11.4h6.9v2.3H339.5z"></path>
			<path d="M360.1,764.1l2.7,0.9c-0.4,1.5-1.1,2.6-2.1,3.4c-1,0.7-2.2,1.1-3.7,1.1c-1.8,0-3.3-0.6-4.5-1.9c-1.2-1.3-1.8-3-1.8-5.1
				c0-2.3,0.6-4.1,1.8-5.4c1.2-1.3,2.7-1.9,4.7-1.9c1.7,0,3.1,0.5,4.1,1.5c0.6,0.6,1.1,1.4,1.4,2.5l-2.8,0.7c-0.2-0.7-0.5-1.3-1-1.7
				c-0.5-0.4-1.1-0.6-1.9-0.6c-1,0-1.9,0.4-2.5,1.1s-1,1.9-1,3.6c0,1.7,0.3,3,0.9,3.7c0.6,0.7,1.4,1.1,2.4,1.1
				c0.7,0,1.4-0.2,1.9-0.7S359.8,765.1,360.1,764.1z"></path>
			<path d="M364.6,762.4c0-1.4,0.2-2.6,0.6-3.5c0.3-0.7,0.7-1.3,1.3-1.9s1.1-1,1.8-1.2c0.9-0.4,1.9-0.5,3-0.5c2,0,3.7,0.6,4.9,1.9
				s1.8,3,1.8,5.3c0,2.2-0.6,4-1.8,5.2c-1.2,1.3-2.8,1.9-4.9,1.9c-2.1,0-3.7-0.6-4.9-1.9C365.2,766.3,364.6,764.5,364.6,762.4z
				 M367.5,762.3c0,1.6,0.4,2.7,1.1,3.6s1.6,1.2,2.7,1.2c1.1,0,2-0.4,2.7-1.2c0.7-0.8,1.1-2,1.1-3.6c0-1.6-0.3-2.8-1-3.5
				c-0.7-0.8-1.6-1.2-2.8-1.2c-1.1,0-2.1,0.4-2.8,1.2S367.5,760.7,367.5,762.3z M369.6,754.6l1.3-2.8h3l-2.6,2.8H369.6z"></path>
			<path d="M380.2,769.2v-13.8h2.7l5.6,9.2v-9.2h2.6v13.8h-2.8l-5.6-9v9H380.2z"></path>
			<path d="M408.3,764.1l2.7,0.9c-0.4,1.5-1.1,2.6-2.1,3.4s-2.2,1.1-3.7,1.1c-1.8,0-3.3-0.6-4.5-1.9c-1.2-1.3-1.8-3-1.8-5.1
				c0-2.3,0.6-4.1,1.8-5.4c1.2-1.3,2.7-1.9,4.7-1.9c1.7,0,3.1,0.5,4.1,1.5c0.6,0.6,1.1,1.4,1.4,2.5l-2.8,0.7c-0.2-0.7-0.5-1.3-1-1.7
				c-0.5-0.4-1.1-0.6-1.9-0.6c-1,0-1.9,0.4-2.5,1.1c-0.6,0.7-1,1.9-1,3.6c0,1.7,0.3,3,0.9,3.7c0.6,0.7,1.4,1.1,2.4,1.1
				c0.7,0,1.4-0.2,1.9-0.7S408,765.1,408.3,764.1z"></path>
			<path d="M413.4,769.2v-13.8h10.2v2.3h-7.4v3.1h6.9v2.3h-6.9v3.8h7.7v2.3H413.4z"></path>
			<path d="M426.3,769.2v-13.8h2.7l5.6,9.2v-9.2h2.6v13.8h-2.8l-5.6-9v9H426.3z"></path>
			<path d="M443.3,769.2v-11.5h-4.1v-2.3h11v2.3H446v11.5H443.3z"></path>
			<path d="M451.9,769.2v-13.8h5.9c1.5,0,2.5,0.1,3.2,0.4c0.7,0.2,1.2,0.7,1.6,1.3c0.4,0.6,0.6,1.4,0.6,2.2c0,1-0.3,1.9-0.9,2.6
				c-0.6,0.7-1.5,1.1-2.7,1.3c0.6,0.4,1.1,0.7,1.5,1.2c0.4,0.4,0.9,1.2,1.6,2.2l1.7,2.7H461l-2-3c-0.7-1.1-1.2-1.8-1.5-2
				s-0.5-0.5-0.8-0.6s-0.8-0.2-1.4-0.2h-0.6v5.8H451.9z M454.7,761.2h2.1c1.3,0,2.2-0.1,2.5-0.2c0.3-0.1,0.6-0.3,0.8-0.6
				c0.2-0.3,0.3-0.6,0.3-1c0-0.5-0.1-0.8-0.4-1.1c-0.2-0.3-0.6-0.5-1-0.5c-0.2,0-0.9,0-2,0h-2.2V761.2z"></path>
			<path d="M478.3,769.2h-3l-1.2-3.1h-5.5l-1.1,3.1h-3l5.4-13.8h2.9L478.3,769.2z M473.2,763.7l-1.9-5.1l-1.9,5.1H473.2z"></path>
			<path d="M479.9,769.2v-13.7h2.8v11.4h6.9v2.3H479.9z"></path>
		</g>
		<line id="STAGE_00000179639892219053973080000000876827438807264922_" class="st1" x1="400" y1="721.5" x2="400" y2="721.5"></line>
		<line id="CENTER_00000038410353270825253410000000373258935568089742_" class="st1" x1="400" y1="794" x2="400" y2="794"></line>
	<label class="idBloque">146619</label><label class="nombreBloque">F1</label></g>
<label>35542</label></g>
<g id="BALCÓN_DERECHO">
	<g id="E1">
		<polygon id="BDERECHO1" class="BDERECHO chunkMap" points="710.2,74 710.2,720.6 710.7,721.5 750.5,795.1 750.5,793.8 751.3,795.1 751.3,721.5 
			751.3,74 		"></polygon>
		<g id="_x33__2_">
			<path d="M736.3,344.3v5.5c0,1.1,0,1.9-0.1,2.4c-0.1,0.5-0.3,1-0.6,1.4s-0.7,0.8-1.2,1.1c-0.5,0.3-1,0.4-1.6,0.4
				c-0.6,0-1.2-0.2-1.8-0.5c-0.5-0.3-0.9-0.8-1.2-1.4c-0.2,0.8-0.7,1.5-1.3,1.9c-0.6,0.5-1.3,0.7-2.1,0.7c-0.6,0-1.2-0.1-1.8-0.4
				c-0.6-0.3-1.1-0.7-1.4-1.2c-0.4-0.5-0.6-1.1-0.7-1.9c-0.1-0.5-0.1-1.6-0.1-3.4v-4.7H736.3z M728.5,347.1h-3.7v2.6
				c0,1,0,1.6,0.1,1.9c0.1,0.4,0.3,0.8,0.6,1c0.3,0.3,0.7,0.4,1.2,0.4c0.4,0,0.8-0.1,1.1-0.3c0.3-0.2,0.5-0.5,0.6-0.9
				c0.1-0.4,0.2-1.2,0.2-2.5V347.1z M734,347.1h-3.2v1.8c0,1.1,0,1.8,0,2c0.1,0.5,0.2,0.9,0.5,1.1c0.3,0.3,0.6,0.4,1.1,0.4
				c0.4,0,0.8-0.1,1-0.4c0.3-0.2,0.4-0.6,0.5-1c0-0.3,0-1.1,0-2.4V347.1z"></path>
			<path d="M722.5,370.6v-3l3.1-1.2v-5.5l-3.1-1.1v-3l13.8,5.4v2.9L722.5,370.6z M728,365.5l5.1-1.9l-5.1-1.9V365.5z"></path>
			<path d="M722.5,372.2h13.7v2.8h-11.4v6.9h-2.3V372.2z"></path>
			<path d="M727.6,392.7l-0.9,2.7c-1.5-0.4-2.6-1.1-3.4-2.1s-1.1-2.2-1.1-3.7c0-1.8,0.6-3.3,1.9-4.5c1.3-1.2,3-1.8,5.1-1.8
				c2.3,0,4.1,0.6,5.4,1.8c1.3,1.2,1.9,2.7,1.9,4.7c0,1.7-0.5,3.1-1.5,4.1c-0.6,0.6-1.4,1.1-2.5,1.4l-0.7-2.8c0.7-0.2,1.3-0.5,1.7-1
				c0.4-0.5,0.6-1.1,0.6-1.9c0-1-0.4-1.9-1.1-2.5c-0.7-0.6-1.9-1-3.6-1c-1.7,0-3,0.3-3.7,0.9s-1.1,1.4-1.1,2.4
				c0,0.7,0.2,1.4,0.7,1.9S726.6,392.5,727.6,392.7z"></path>
			<path d="M729.3,397.3c1.4,0,2.6,0.2,3.5,0.6c0.7,0.3,1.3,0.7,1.9,1.3s1,1.1,1.2,1.8c0.4,0.9,0.5,1.9,0.5,3c0,2-0.6,3.7-1.9,4.9
				s-3,1.8-5.3,1.8c-2.2,0-4-0.6-5.2-1.8c-1.3-1.2-1.9-2.8-1.9-4.9c0-2.1,0.6-3.7,1.9-4.9C725.4,397.9,727.1,397.3,729.3,397.3z
				 M729.4,400.1c-1.6,0-2.7,0.4-3.6,1.1c-0.8,0.7-1.2,1.6-1.2,2.7s0.4,2,1.2,2.7c0.8,0.7,2,1.1,3.6,1.1c1.6,0,2.8-0.3,3.5-1
				c0.8-0.7,1.2-1.6,1.2-2.8s-0.4-2.1-1.2-2.8C732.2,400.5,731,400.1,729.4,400.1z M737.1,402.2l2.8,1.3v3l-2.8-2.6V402.2z"></path>
			<path d="M722.5,412.9h13.8v2.7l-9.2,5.6h9.2v2.6h-13.8V421l9-5.6h-9V412.9z"></path>
			<path d="M736.3,432.1v5.1c0,1.1-0.1,2-0.3,2.6c-0.2,0.8-0.7,1.5-1.3,2.1c-0.6,0.6-1.4,1-2.2,1.3c-0.9,0.3-2,0.5-3.3,0.5
				c-1.1,0-2.1-0.1-2.9-0.4c-1-0.3-1.8-0.8-2.4-1.5c-0.5-0.5-0.8-1.1-1.1-2c-0.2-0.6-0.3-1.4-0.3-2.5v-5.2H736.3z M734,434.9h-9.1
				v2.1c0,0.8,0,1.3,0.1,1.7c0.1,0.5,0.3,0.8,0.6,1.1c0.3,0.3,0.7,0.5,1.3,0.7c0.6,0.2,1.5,0.3,2.5,0.3c1.1,0,1.9-0.1,2.5-0.3
				s1-0.5,1.3-0.8s0.5-0.8,0.7-1.3c0.1-0.4,0.1-1.2,0.1-2.3V434.9z"></path>
			<path d="M722.5,446h13.8v10.2H734v-7.4h-3.1v6.9h-2.3v-6.9h-3.8v7.7h-2.3V446z"></path>
			<path d="M722.5,458.9h13.8v5.9c0,1.5-0.1,2.5-0.4,3.2c-0.2,0.7-0.7,1.2-1.3,1.6c-0.6,0.4-1.4,0.6-2.2,0.6c-1,0-1.9-0.3-2.6-0.9
				c-0.7-0.6-1.1-1.5-1.3-2.7c-0.4,0.6-0.7,1.1-1.2,1.5c-0.4,0.4-1.2,0.9-2.2,1.6l-2.7,1.7V468l3-2c1.1-0.7,1.8-1.2,2-1.5
				s0.5-0.5,0.6-0.8s0.2-0.8,0.2-1.4v-0.6h-5.8V458.9z M730.5,461.7v2.1c0,1.3,0.1,2.2,0.2,2.5c0.1,0.3,0.3,0.6,0.6,0.8
				c0.3,0.2,0.6,0.3,1,0.3c0.5,0,0.8-0.1,1.1-0.4c0.3-0.2,0.5-0.6,0.5-1c0-0.2,0-0.9,0-2v-2.2H730.5z"></path>
			<path d="M722.5,472.8h13.8v10.2H734v-7.4h-3.1v6.9h-2.3v-6.9h-3.8v7.7h-2.3V472.8z"></path>
			<path d="M727.6,494.5l-0.9,2.7c-1.5-0.4-2.6-1.1-3.4-2.1s-1.1-2.2-1.1-3.7c0-1.8,0.6-3.3,1.9-4.5c1.3-1.2,3-1.8,5.1-1.8
				c2.3,0,4.1,0.6,5.4,1.8c1.3,1.2,1.9,2.7,1.9,4.7c0,1.7-0.5,3.1-1.5,4.1c-0.6,0.6-1.4,1.1-2.5,1.4l-0.7-2.8c0.7-0.2,1.3-0.5,1.7-1
				c0.4-0.5,0.6-1.1,0.6-1.9c0-1-0.4-1.9-1.1-2.5c-0.7-0.6-1.9-1-3.6-1c-1.7,0-3,0.3-3.7,0.9s-1.1,1.4-1.1,2.4
				c0,0.7,0.2,1.4,0.7,1.9S726.6,494.3,727.6,494.5z"></path>
			<path d="M722.5,499.6h13.8v2.8h-5.4v5.5h5.4v2.8h-13.8v-2.8h6v-5.5h-6V499.6z"></path>
			<path d="M729.3,513c1.4,0,2.6,0.2,3.5,0.6c0.7,0.3,1.3,0.7,1.9,1.3s1,1.1,1.2,1.8c0.4,0.9,0.5,1.9,0.5,3c0,2-0.6,3.7-1.9,4.9
				s-3,1.8-5.3,1.8c-2.2,0-4-0.6-5.2-1.8c-1.3-1.2-1.9-2.8-1.9-4.9c0-2.1,0.6-3.7,1.9-4.9C725.4,513.6,727.1,513,729.3,513z
				 M729.4,515.8c-1.6,0-2.7,0.4-3.6,1.1c-0.8,0.7-1.2,1.6-1.2,2.7c0,1.1,0.4,2,1.2,2.7c0.8,0.7,2,1.1,3.6,1.1c1.6,0,2.8-0.3,3.5-1
				c0.8-0.7,1.2-1.6,1.2-2.8c0-1.1-0.4-2.1-1.2-2.8S731,515.8,729.4,515.8z"></path>
		</g>
		<line id="STAGE_00000004536862402019156450000005518754356826075068_" class="st1" x1="710.2" y1="431.6" x2="710.2" y2="431.6"></line>
		
			<line id="CENTER_00000028320745730473344740000004828156229036948118_" class="st1" x1="751.3" y1="431.6" x2="751.3" y2="431.6"></line>
	<label class="idBloque">146615</label><label class="nombreBloque">D1</label></g>
<label>35540</label></g>
<g id="BALCÓN_IZQUIERDO">
	<g id="D1">
		<polygon id="BIZQUIERDO1" class=" BIZQUIERDO chunkMap" points="45.9,74 45.9,721.5 45.9,795.1 86.5,721.5 87,720.6 87,74 		"></polygon>
		<g id="_x33__5_">
			<path d="M60,531.1v-5.5c0-1.1,0-1.9,0.1-2.4c0.1-0.5,0.3-1,0.6-1.4c0.3-0.4,0.7-0.8,1.2-1.1c0.5-0.3,1-0.4,1.6-0.4
				c0.6,0,1.2,0.2,1.8,0.5c0.5,0.3,0.9,0.8,1.2,1.4c0.2-0.8,0.7-1.5,1.3-1.9c0.6-0.5,1.3-0.7,2.1-0.7c0.6,0,1.2,0.1,1.8,0.4
				s1.1,0.7,1.4,1.2c0.4,0.5,0.6,1.1,0.7,1.9c0.1,0.5,0.1,1.6,0.1,3.4v4.7H60z M62.3,528.3h3.2v-1.8c0-1.1,0-1.8,0-2
				c-0.1-0.5-0.2-0.9-0.5-1.1c-0.3-0.3-0.6-0.4-1.1-0.4c-0.4,0-0.8,0.1-1,0.4c-0.3,0.2-0.4,0.6-0.5,1c0,0.3,0,1.1,0,2.4V528.3z
				 M67.8,528.3h3.7v-2.6c0-1,0-1.6-0.1-1.9c-0.1-0.4-0.3-0.8-0.6-1c-0.3-0.3-0.7-0.4-1.2-0.4c-0.4,0-0.8,0.1-1.1,0.3
				s-0.5,0.5-0.6,0.9s-0.2,1.2-0.2,2.5V528.3z"></path>
			<path d="M73.8,504.7v3l-3.1,1.2v5.5l3.1,1.1v3L60,513.2v-2.9L73.8,504.7z M68.3,509.8l-5.1,1.9l5.1,1.9V509.8z"></path>
			<path d="M73.8,503.2H60.1v-2.8h11.4v-6.9h2.3V503.2z"></path>
			<path d="M68.7,482.6l0.9-2.7c1.5,0.4,2.6,1.1,3.4,2.1c0.7,1,1.1,2.2,1.1,3.7c0,1.8-0.6,3.3-1.9,4.5c-1.3,1.2-3,1.8-5.1,1.8
				c-2.3,0-4.1-0.6-5.4-1.8c-1.3-1.2-1.9-2.7-1.9-4.7c0-1.7,0.5-3.1,1.5-4.1c0.6-0.6,1.4-1.1,2.5-1.4l0.7,2.8
				c-0.7,0.2-1.3,0.5-1.7,1c-0.4,0.5-0.6,1.1-0.6,1.9c0,1,0.4,1.9,1.1,2.5c0.7,0.6,1.9,1,3.6,1c1.7,0,3-0.3,3.7-0.9s1.1-1.4,1.1-2.4
				c0-0.7-0.2-1.4-0.7-1.9S69.7,482.9,68.7,482.6z"></path>
			<path d="M59.2,473.1l-2.8-1.3v-3l2.8,2.6V473.1z M67,478.1c-1.4,0-2.6-0.2-3.5-0.6c-0.7-0.3-1.3-0.7-1.9-1.3s-1-1.1-1.2-1.8
				c-0.4-0.9-0.5-1.9-0.5-3c0-2,0.6-3.7,1.9-4.9s3-1.8,5.3-1.8c2.2,0,4,0.6,5.2,1.8c1.3,1.2,1.9,2.8,1.9,4.9c0,2.1-0.6,3.7-1.9,4.9
				C70.9,477.5,69.2,478.1,67,478.1z M66.9,475.2c1.6,0,2.7-0.4,3.6-1.1c0.8-0.7,1.2-1.6,1.2-2.7s-0.4-2-1.2-2.7
				c-0.8-0.7-2-1.1-3.6-1.1c-1.6,0-2.8,0.3-3.5,1c-0.8,0.7-1.2,1.6-1.2,2.8s0.4,2.1,1.2,2.8C64.1,474.9,65.3,475.2,66.9,475.2z"></path>
			<path d="M73.8,462.5H60v-2.7l9.2-5.6H60v-2.6h13.8v2.8l-9,5.6h9V462.5z"></path>
			<path d="M73.8,443.3H60v-2.8h13.8V443.3z"></path>
			<path d="M73.8,439.1h-2.5l-9-7.2v6.4H60v-10.1h2.2l9.3,7.6v-7.9h2.3V439.1z"></path>
			<path d="M72.1,415c0.5-0.7,0.9-1.4,1.2-2.2l2,1c-0.1,0.4-0.3,0.8-0.5,1.2c0,0.1-0.5,0.7-1.2,1.9c0.4,0.9,0.6,1.9,0.6,3
				c0,2.1-0.6,3.8-1.9,5s-3,1.8-5.3,1.8c-2.3,0-4-0.6-5.3-1.8s-1.9-2.8-1.9-4.9c0-2,0.6-3.7,1.9-4.9s3-1.8,5.3-1.8
				c1.2,0,2.2,0.2,3.1,0.5C70.7,414,71.4,414.4,72.1,415z M70.5,417.2c-0.4-0.4-0.9-0.6-1.5-0.8c-0.6-0.2-1.3-0.3-2.1-0.3
				c-1.6,0-2.8,0.4-3.6,1.1c-0.8,0.7-1.2,1.6-1.2,2.8c0,1.1,0.4,2.1,1.2,2.8c0.8,0.7,2,1.1,3.6,1.1c1.6,0,2.8-0.4,3.6-1.1
				c0.8-0.7,1.2-1.6,1.2-2.7c0-0.4-0.1-0.8-0.2-1.1c-0.4,0.6-0.7,1.1-0.9,1.7l-1.6-0.8C69.4,418.9,69.9,418.1,70.5,417.2z"></path>
			<path d="M60,411.1v-2.8h7.5c1.2,0,2,0,2.3-0.1c0.6-0.1,1-0.4,1.4-0.9c0.3-0.4,0.5-1.1,0.5-1.8c0-0.8-0.2-1.4-0.5-1.8
				c-0.3-0.4-0.7-0.6-1.2-0.7c-0.5-0.1-1.3-0.1-2.3-0.1H60v-2.8h7.2c1.7,0,2.8,0.1,3.5,0.2s1.3,0.4,1.7,0.8c0.5,0.4,0.8,0.9,1.1,1.6
				c0.3,0.7,0.4,1.6,0.4,2.7c0,1.3-0.2,2.3-0.5,3c-0.3,0.7-0.7,1.2-1.2,1.6c-0.5,0.4-1,0.7-1.5,0.8c-0.8,0.2-2,0.3-3.5,0.3H60z"></path>
			<path d="M73.8,397.3H60v-2.8h13.8V397.3z"></path>
			<path d="M73.8,391.8H60v-10.2h2.3v7.4h3.1v-6.9h2.3v6.9h3.8v-7.7h2.3V391.8z"></path>
			<path d="M73.8,379H60v-5.9c0-1.5,0.1-2.5,0.4-3.2s0.7-1.2,1.3-1.6c0.6-0.4,1.4-0.6,2.2-0.6c1,0,1.9,0.3,2.6,0.9s1.1,1.5,1.3,2.7
				c0.4-0.6,0.7-1.1,1.2-1.5c0.4-0.4,1.2-0.9,2.2-1.6l2.7-1.7v3.3l-3,2c-1.1,0.7-1.8,1.2-2,1.5s-0.5,0.5-0.6,0.8
				c-0.1,0.3-0.2,0.8-0.2,1.4v0.6h5.8V379z M65.8,376.2v-2.1c0-1.3-0.1-2.2-0.2-2.5c-0.1-0.3-0.3-0.6-0.6-0.8s-0.6-0.3-1-0.3
				c-0.5,0-0.8,0.1-1.1,0.4c-0.3,0.2-0.5,0.6-0.5,1c0,0.2,0,0.9,0,2v2.2H65.8z"></path>
			<path d="M60,365V360c0-1.1,0.1-2,0.3-2.6c0.2-0.8,0.7-1.5,1.3-2.1c0.6-0.6,1.4-1,2.2-1.3s2-0.5,3.3-0.5c1.1,0,2.1,0.1,2.9,0.4
				c1,0.3,1.8,0.8,2.4,1.5c0.5,0.5,0.8,1.1,1.1,2c0.2,0.6,0.3,1.4,0.3,2.5v5.2H60z M62.3,362.3h9.1v-2.1c0-0.8,0-1.3-0.1-1.7
				c-0.1-0.5-0.3-0.8-0.6-1.1c-0.3-0.3-0.7-0.5-1.3-0.7c-0.6-0.2-1.5-0.3-2.5-0.3c-1.1,0-1.9,0.1-2.5,0.3c-0.6,0.2-1,0.5-1.3,0.8
				c-0.3,0.3-0.5,0.8-0.6,1.3c-0.1,0.4-0.1,1.2-0.1,2.3V362.3z"></path>
			<path d="M67,351.7c-1.4,0-2.6-0.2-3.5-0.6c-0.7-0.3-1.3-0.7-1.9-1.3s-1-1.1-1.2-1.8c-0.4-0.9-0.5-1.9-0.5-3c0-2,0.6-3.7,1.9-4.9
				s3-1.8,5.3-1.8c2.2,0,4,0.6,5.2,1.8s1.9,2.8,1.9,4.9c0,2.1-0.6,3.7-1.9,4.9S69.2,351.7,67,351.7z M66.9,348.8
				c1.6,0,2.7-0.4,3.6-1.1s1.2-1.6,1.2-2.7c0-1.1-0.4-2-1.2-2.7s-2-1.1-3.6-1.1c-1.6,0-2.8,0.3-3.5,1c-0.8,0.7-1.2,1.6-1.2,2.8
				c0,1.1,0.4,2.1,1.2,2.8C64.1,348.5,65.3,348.8,66.9,348.8z"></path>
		</g>
		<line id="STAGE_00000041986808677728224580000006088574051414822064_" class="st1" x1="87" y1="431.6" x2="87" y2="431.6"></line>
		<line id="CENTER_00000052085892626468734260000011459218945599800460_" class="st1" x1="45.9" y1="431.6" x2="45.9" y2="431.6"></line>
	<label class="idBloque">146617</label><label class="nombreBloque">E1</label></g>
<label>35538</label></g>
<g id="PLATA">
	<g>
		<polygon id="C4" class=" PLATA chunkMap" points="579.4,549.3 579.4,678 666.6,654.4 666.6,520.9 		"></polygon>
		<g id="_x32__13_">
			<path d="M624.1,605.1l3.5,1.1c-0.5,2-1.4,3.4-2.7,4.4c-1.2,0.9-2.8,1.4-4.8,1.4c-2.4,0-4.3-0.8-5.9-2.4c-1.5-1.6-2.3-3.8-2.3-6.7
				c0-3,0.8-5.3,2.3-6.9c1.5-1.6,3.6-2.5,6.1-2.5c2.2,0,4,0.6,5.3,1.9c0.8,0.8,1.4,1.9,1.8,3.3l-3.6,0.9c-0.2-0.9-0.7-1.7-1.3-2.2
				c-0.7-0.5-1.5-0.8-2.4-0.8c-1.3,0-2.4,0.5-3.2,1.4c-0.8,1-1.2,2.5-1.2,4.6c0,2.3,0.4,3.9,1.2,4.8s1.9,1.4,3.2,1.4
				c1,0,1.8-0.3,2.5-0.9C623.3,607.3,623.8,606.4,624.1,605.1z"></path>
			<path d="M636.7,611.7V608h-7.3v-3l7.8-11.4h2.9V605h2.2v3H640v3.6H636.7z M636.7,605v-6.1l-4.1,6.1H636.7z"></path>
		</g>
		<line id="STAGE_00000129176041105068390060000008804195269607633048_" class="st6" x1="623.2" y1="549.3" x2="623.2" y2="549.3"></line>
		
			<line id="CENTER_00000128485208250265632870000000299568993458230919_" class="st6" x1="623.2" y1="676.3" x2="623.2" y2="676.3"></line>
		<line id="D_00000093135737790252077170000007413724372005397946_" class="st6" x1="666.6" y1="676.3" x2="666.6" y2="676.3"></line>
		<line id="C_00000138539083304884024690000014053114864358680499_" class="st6" x1="579.4" y1="676.3" x2="579.4" y2="676.3"></line>
		<line id="B_00000070802968000383693360000005238460093715000222_" class="st6" x1="666.6" y1="549.3" x2="666.6" y2="549.3"></line>
		<line id="A_00000173147479904507945280000002592460712024081291_" class="st6" x1="579.4" y1="549.3" x2="579.4" y2="549.3"></line>
	<label class="idBloque">146612</label><label class="nombreBloque">C4</label></g>
	<g  class="">
		
			<rect id="C3" x="413.3" y="549.3" class=" PLATA chunkMap" width="152.8" height="162.5"></rect>
		<g id="_x32__00000101090113508530028680000013964752929992956589_">
			<path d="M487.5,642.9l3.5,1.1c-0.5,2-1.4,3.4-2.7,4.4c-1.2,0.9-2.8,1.4-4.8,1.4c-2.4,0-4.3-0.8-5.9-2.4c-1.5-1.6-2.3-3.8-2.3-6.7
				c0-3,0.8-5.3,2.3-6.9c1.5-1.6,3.6-2.5,6.1-2.5c2.2,0,4,0.6,5.3,1.9c0.8,0.8,1.4,1.9,1.8,3.3l-3.6,0.9c-0.2-0.9-0.7-1.7-1.3-2.2
				c-0.7-0.5-1.5-0.8-2.4-0.8c-1.3,0-2.4,0.5-3.2,1.4c-0.8,1-1.2,2.5-1.2,4.6c0,2.3,0.4,3.9,1.2,4.8s1.9,1.4,3.2,1.4
				c1,0,1.8-0.3,2.5-0.9C486.7,645.2,487.2,644.3,487.5,642.9z"></path>
			<path d="M493.3,644.8l3.3-0.4c0.1,0.8,0.4,1.5,0.9,1.9c0.5,0.4,1,0.7,1.7,0.7c0.7,0,1.3-0.3,1.8-0.8c0.5-0.5,0.7-1.3,0.7-2.2
				c0-0.9-0.2-1.5-0.7-2.1s-1-0.8-1.7-0.8c-0.4,0-1,0.1-1.6,0.3l0.4-2.8c0.9,0,1.6-0.2,2.1-0.6c0.5-0.4,0.7-1,0.7-1.7
				c0-0.6-0.2-1.1-0.5-1.4c-0.4-0.4-0.8-0.5-1.4-0.5c-0.6,0-1.1,0.2-1.5,0.6c-0.4,0.4-0.7,1-0.8,1.8l-3.2-0.5c0.2-1.1,0.6-1.9,1-2.6
				c0.4-0.6,1.1-1.2,1.9-1.5c0.8-0.4,1.7-0.6,2.7-0.6c1.7,0,3,0.5,4.1,1.6c0.8,0.9,1.3,1.9,1.3,3c0,1.6-0.9,2.8-2.6,3.8
				c1,0.2,1.8,0.7,2.5,1.5c0.6,0.8,0.9,1.7,0.9,2.8c0,1.6-0.6,2.9-1.7,4c-1.1,1.1-2.6,1.7-4.3,1.7c-1.6,0-3-0.5-4-1.4
				C494.1,647.5,493.4,646.3,493.3,644.8z"></path>
		</g>
		<line id="STAGE_00000101078100032220843360000000987555891383328913_" class="st7" x1="489.7" y1="549.3" x2="489.7" y2="549.3"></line>
		
			<line id="CENTER_00000032624686790422313870000016819976692336323223_" class="st7" x1="489.7" y1="709.1" x2="489.7" y2="709.1"></line>
		<line id="D_00000061462395726183040250000012940183288005548471_" class="st7" x1="565.6" y1="709.1" x2="565.6" y2="709.1"></line>
		<line id="C_00000150072103595547351670000009035540328920872355_" class="st7" x1="413.4" y1="709.1" x2="413.4" y2="709.1"></line>
		<line id="B_00000173843804515922007630000003184125946887599783_" class="st7" x1="565.5" y1="549.3" x2="565.5" y2="549.3"></line>
		<line id="A_00000016042086631677888450000008402953623336989356_" class="st7" x1="413.3" y1="549.3" x2="413.3" y2="549.3"></line>
	<label class="idBloque">146611</label><label class="nombreBloque">C3</label></g>
	<g >
		<rect id="C2" x="231.5" y="549.3" class=" PLATA chunkMap" width="152.9" height="161.6"></rect>
		<g id="_x32__00000107567852753125785360000013648189928136324238_">
			<path d="M303.7,642.9l3.5,1.1c-0.5,2-1.4,3.4-2.7,4.4c-1.2,0.9-2.8,1.4-4.8,1.4c-2.4,0-4.3-0.8-5.9-2.4c-1.5-1.6-2.3-3.8-2.3-6.7
				c0-3,0.8-5.3,2.3-6.9c1.5-1.6,3.6-2.5,6.1-2.5c2.2,0,4,0.6,5.3,1.9c0.8,0.8,1.4,1.9,1.8,3.3l-3.6,0.9c-0.2-0.9-0.7-1.7-1.3-2.2
				c-0.7-0.5-1.5-0.8-2.4-0.8c-1.3,0-2.4,0.5-3.2,1.4c-0.8,1-1.2,2.5-1.2,4.6c0,2.3,0.4,3.9,1.2,4.8c0.8,1,1.9,1.4,3.2,1.4
				c1,0,1.8-0.3,2.5-0.9C302.9,645.2,303.4,644.3,303.7,642.9z"></path>
			<path d="M321.2,646.3v3.2h-12c0.1-1.2,0.5-2.3,1.2-3.4c0.7-1.1,1.9-2.5,3.9-4.3c1.5-1.4,2.5-2.4,2.8-2.9c0.5-0.7,0.7-1.4,0.7-2.1
				c0-0.8-0.2-1.4-0.6-1.8c-0.4-0.4-1-0.6-1.7-0.6c-0.7,0-1.3,0.2-1.7,0.6c-0.4,0.4-0.7,1.1-0.7,2.1l-3.4-0.3
				c0.2-1.9,0.8-3.2,1.9-4.1c1.1-0.8,2.4-1.2,4-1.2c1.8,0,3.2,0.5,4.2,1.4c1,1,1.5,2.1,1.5,3.6c0,0.8-0.1,1.6-0.4,2.3
				c-0.3,0.7-0.7,1.5-1.4,2.3c-0.4,0.5-1.2,1.3-2.2,2.3c-1.1,1-1.8,1.7-2.1,2c-0.3,0.3-0.5,0.6-0.7,1H321.2z"></path>
		</g>
		<g id="_x33__1_">
			<path d="M342.7,602.6v-25.1h8.1c3.1,0,5.1,0.1,6,0.4c1.4,0.4,2.6,1.2,3.6,2.5c1,1.3,1.5,2.9,1.5,4.9c0,1.5-0.3,2.8-0.8,3.9
				c-0.6,1-1.3,1.9-2.1,2.5c-0.9,0.6-1.7,1-2.6,1.2c-1.2,0.2-3,0.4-5.2,0.4h-3.3v9.5H342.7z M347.8,581.7v7.1h2.8c2,0,3.3-0.1,4-0.4
				c0.7-0.3,1.2-0.7,1.6-1.2c0.4-0.6,0.6-1.2,0.6-1.9c0-0.9-0.3-1.7-0.8-2.3c-0.5-0.6-1.2-1-2-1.1c-0.6-0.1-1.8-0.2-3.6-0.2H347.8z"></path>
			<path d="M366.2,602.6v-24.8h5.1v20.6h12.6v4.2H366.2z"></path>
			<path d="M410,602.6h-5.5l-2.2-5.7h-10l-2.1,5.7h-5.4l9.8-25.1h5.3L410,602.6z M400.7,592.6l-3.5-9.3l-3.4,9.3H400.7z"></path>
			<path d="M415.8,602.6v-20.8h-7.4v-4.2h19.9v4.2h-7.4v20.8H415.8z"></path>
			<path d="M451.5,602.6H446l-2.2-5.7h-10l-2.1,5.7h-5.4l9.8-25.1h5.3L451.5,602.6z M442.2,592.6l-3.5-9.3l-3.4,9.3H442.2z"></path>
		</g>
		<line id="STAGE_00000152977792278680739600000011807908313611481005_" class="st8" x1="308" y1="549.3" x2="308" y2="549.3"></line>
		<line id="CENTER_00000085945392486549959530000002869898980141152171_" class="st8" x1="308" y1="709.1" x2="308" y2="709.1"></line>
		<line id="D_00000143613768030477284110000016968413193871744401_" class="st8" x1="384.3" y1="709.1" x2="384.3" y2="709.1"></line>
		<line id="C_00000172423385837143664200000005036348473821525688_" class="st8" x1="231.3" y1="709.1" x2="231.3" y2="709.1"></line>
		<line id="B_00000052090691585800463270000004446286517639458982_" class="st8" x1="384.2" y1="549.3" x2="384.2" y2="549.3"></line>
		<line id="A_00000065070060562915661110000006965735243650629273_" class="st8" x1="231.2" y1="549.3" x2="231.2" y2="549.3"></line>
	<label class="idBloque">146610</label><label class="nombreBloque">C2</label></g>
	<g class="">
		<polygon id="C1" class=" PLATA chunkMap" points="130.5,520.9 130.5,645.1 
			220.5,678.5 220.5,550.2 		"></polygon>
		<g id="_x32__00000080897775302193481290000013203519308388513202_">
			<path d="M172.8,605.1l3.5,1.1c-0.5,2-1.4,3.4-2.7,4.4c-1.2,0.9-2.8,1.4-4.8,1.4c-2.4,0-4.3-0.8-5.9-2.4c-1.5-1.6-2.3-3.8-2.3-6.7
				c0-3,0.8-5.3,2.3-6.9c1.5-1.6,3.6-2.5,6.1-2.5c2.2,0,4,0.6,5.3,1.9c0.8,0.8,1.4,1.9,1.8,3.3l-3.6,0.9c-0.2-0.9-0.7-1.7-1.3-2.2
				c-0.7-0.5-1.5-0.8-2.4-0.8c-1.3,0-2.4,0.5-3.2,1.4c-0.8,1-1.2,2.5-1.2,4.6c0,2.3,0.4,3.9,1.2,4.8c0.8,1,1.9,1.4,3.2,1.4
				c1,0,1.8-0.3,2.5-0.9C172,607.3,172.5,606.4,172.8,605.1z"></path>
			<path d="M187.4,611.7H184v-12.9c-1.3,1.2-2.7,2-4.4,2.6v-3.1c0.9-0.3,1.9-0.8,2.9-1.7c1-0.8,1.8-1.8,2.2-2.9h2.8V611.7z"></path>
		</g>
		<line id="STAGE_00000065032418882884359080000018197008415484735872_" class="st9" x1="175.6" y1="549.3" x2="175.6" y2="549.3"></line>
		
			<line id="CENTER_00000076574064135944147720000005806549660593678508_" class="st9" x1="175.6" y1="677.6" x2="175.6" y2="677.6"></line>
		<line id="D_00000129914101597954746570000014652378060427578542_" class="st9" x1="220.5" y1="677.6" x2="220.5" y2="677.6"></line>
		<line id="C_00000166670970877412889250000008012410780377899956_" class="st9" x1="130.5" y1="677.6" x2="130.5" y2="677.6"></line>
		<line id="B_00000014603629047854945470000014430226004249702328_" class="st9" x1="220.4" y1="549.3" x2="220.4" y2="549.3"></line>
		<line id="A_00000108305904777992277300000005451015816254536329_" class="st9" x1="130.5" y1="549.3" x2="130.5" y2="549.3"></line>
	<label class="idBloque">146609</label><label class="nombreBloque">C1</label></g>
<label>35537</label></g>
<g id="ORO">
	<g  class="">
		<polygon id="B4" class=" ORO chunkMap" points="579.4,337 666.6,306.1 666.6,511.1 579.6,542 		"></polygon>
		<g id="_x32__19_">
			<path d="M613.4,436.2h7.2c1.4,0,2.5,0.1,3.2,0.2c0.7,0.1,1.3,0.4,1.9,0.7c0.5,0.4,1,0.9,1.4,1.5c0.4,0.6,0.5,1.3,0.5,2.1
				c0,0.8-0.2,1.6-0.7,2.3c-0.5,0.7-1.1,1.2-1.8,1.6c1.1,0.3,1.9,0.9,2.5,1.6s0.9,1.7,0.9,2.7c0,0.8-0.2,1.6-0.6,2.4
				c-0.4,0.8-0.9,1.4-1.6,1.8c-0.7,0.5-1.5,0.7-2.4,0.8c-0.6,0.1-2.1,0.1-4.4,0.1h-6.1V436.2z M617,439.2v4.1h2.4
				c1.4,0,2.3,0,2.6-0.1c0.6-0.1,1.1-0.3,1.5-0.6c0.4-0.4,0.5-0.8,0.5-1.4c0-0.6-0.2-1-0.5-1.3c-0.3-0.3-0.8-0.6-1.4-0.6
				c-0.4,0-1.4-0.1-3.1-0.1H617z M617,446.3v4.8h3.3c1.3,0,2.1,0,2.5-0.1c0.5-0.1,1-0.3,1.3-0.7c0.3-0.4,0.5-0.9,0.5-1.5
				c0-0.5-0.1-1-0.4-1.4c-0.3-0.4-0.6-0.6-1.1-0.8c-0.5-0.2-1.6-0.3-3.2-0.3H617z"></path>
			<path d="M637.4,454.1v-3.6h-7.3v-3l7.8-11.4h2.9v11.4h2.2v3h-2.2v3.6H637.4z M637.4,447.5v-6.1l-4.1,6.1H637.4z"></path>
		</g>
		
			<line id="STAGE_00000026130462489101101910000018407102140041310336_" class="st11" x1="623.2" y1="336.8" x2="623.2" y2="336.8"></line>
		<line id="CENTER_00000044176266849801110460000010765935167269776829_" class="st11" x1="623.2" y1="540" x2="623.2" y2="540"></line>
		<line id="D_00000092428062233251028300000011992620016187641779_" class="st11" x1="666.6" y1="540" x2="666.6" y2="540"></line>
		<line id="C_00000052091079831634393340000009602895601768166829_" class="st11" x1="579.4" y1="540" x2="579.4" y2="540"></line>
		<line id="B_00000082350512997492931350000016053754881373250954_" class="st11" x1="666.6" y1="336.8" x2="666.6" y2="336.8"></line>
		<line id="A_00000003066189864175127040000008811144597814744745_" class="st11" x1="579.4" y1="336.8" x2="579.4" y2="336.8"></line>
	<label class="idBloque">146608</label><label class="nombreBloque">B4</label></g>
	<g>
		
			<rect id="B3" x="413" y="336.8" class=" ORO chunkMap" width="153.1" height="205.1"></rect>
		<g id="_x32__00000072961743119232787220000016208465643492147375_">
			<path d="M478.5,453.2h7.2c1.4,0,2.5,0.1,3.2,0.2c0.7,0.1,1.3,0.4,1.9,0.7c0.5,0.4,1,0.9,1.4,1.5c0.4,0.6,0.5,1.3,0.5,2.1
				c0,0.8-0.2,1.6-0.7,2.3c-0.5,0.7-1.1,1.2-1.8,1.6c1.1,0.3,1.9,0.9,2.5,1.6s0.9,1.7,0.9,2.7c0,0.8-0.2,1.6-0.6,2.4
				c-0.4,0.8-0.9,1.4-1.6,1.8c-0.7,0.5-1.5,0.7-2.4,0.8c-0.6,0.1-2.1,0.1-4.4,0.1h-6.1V453.2z M482.1,456.2v4.1h2.4
				c1.4,0,2.3,0,2.6-0.1c0.6-0.1,1.1-0.3,1.5-0.6c0.4-0.4,0.5-0.8,0.5-1.4c0-0.6-0.2-1-0.5-1.3c-0.3-0.3-0.8-0.6-1.4-0.6
				c-0.4,0-1.4-0.1-3.1-0.1H482.1z M482.1,463.3v4.8h3.3c1.3,0,2.1,0,2.5-0.1c0.5-0.1,1-0.3,1.3-0.7c0.3-0.4,0.5-0.9,0.5-1.5
				c0-0.5-0.1-1-0.4-1.4c-0.3-0.4-0.6-0.6-1.1-0.8c-0.5-0.2-1.6-0.3-3.2-0.3H482.1z"></path>
			<path d="M495.6,466.4l3.3-0.4c0.1,0.8,0.4,1.5,0.9,1.9c0.5,0.4,1,0.7,1.7,0.7c0.7,0,1.3-0.3,1.8-0.8c0.5-0.5,0.7-1.3,0.7-2.2
				c0-0.9-0.2-1.5-0.7-2.1s-1-0.8-1.7-0.8c-0.4,0-1,0.1-1.6,0.3l0.4-2.8c0.9,0,1.6-0.2,2.1-0.6c0.5-0.4,0.7-1,0.7-1.7
				c0-0.6-0.2-1.1-0.5-1.4c-0.4-0.4-0.8-0.5-1.4-0.5c-0.6,0-1.1,0.2-1.5,0.6c-0.4,0.4-0.7,1-0.8,1.8l-3.2-0.5c0.2-1.1,0.6-1.9,1-2.6
				c0.4-0.6,1.1-1.2,1.9-1.5c0.8-0.4,1.7-0.6,2.7-0.6c1.7,0,3,0.5,4.1,1.6c0.8,0.9,1.3,1.9,1.3,3c0,1.6-0.9,2.8-2.6,3.8
				c1,0.2,1.8,0.7,2.5,1.5c0.6,0.8,0.9,1.7,0.9,2.8c0,1.6-0.6,2.9-1.7,4c-1.1,1.1-2.6,1.7-4.3,1.7c-1.6,0-3-0.5-4-1.4
				C496.4,469.1,495.8,467.9,495.6,466.4z"></path>
		</g>
		
			<line id="STAGE_00000183960374239799526530000015928661263604835479_" class="st12" x1="489.6" y1="336.8" x2="489.6" y2="336.8"></line>
		
			<line id="CENTER_00000138548311825499147470000001176440081519276419_" class="st12" x1="489.6" y1="542.5" x2="489.6" y2="542.5"></line>
		<line id="D_00000057854402225163370010000010771952172708818356_" class="st12" x1="565.6" y1="542.5" x2="565.6" y2="542.5"></line>
		<line id="C_00000173871646221811654960000011229137499851638425_" class="st12" x1="413.1" y1="542.5" x2="413.1" y2="542.5"></line>
		<line id="B_00000122719083623921060450000013917398821804959154_" class="st12" x1="565.5" y1="336.8" x2="565.5" y2="336.8"></line>
		<line id="A_00000034049714322534518670000016273788425002285746_" class="st12" x1="413" y1="336.8" x2="413" y2="336.8"></line>
	<label class="idBloque">146607</label><label class="nombreBloque">B3</label></g>
	<g>
		<rect id="B2" x="231.2" y="336.8" class=" ORO chunkMap" width="153.1" height="205.6"></rect>
		<g id="_x32__16_">
			<path d="M293.9,453.2h7.2c1.4,0,2.5,0.1,3.2,0.2c0.7,0.1,1.3,0.4,1.9,0.7c0.5,0.4,1,0.9,1.4,1.5c0.4,0.6,0.5,1.3,0.5,2.1
				c0,0.8-0.2,1.6-0.7,2.3c-0.5,0.7-1.1,1.2-1.8,1.6c1.1,0.3,1.9,0.9,2.5,1.6s0.9,1.7,0.9,2.7c0,0.8-0.2,1.6-0.6,2.4
				c-0.4,0.8-0.9,1.4-1.6,1.8c-0.7,0.5-1.5,0.7-2.4,0.8c-0.6,0.1-2.1,0.1-4.4,0.1h-6.1V453.2z M297.5,456.2v4.1h2.4
				c1.4,0,2.3,0,2.6-0.1c0.6-0.1,1.1-0.3,1.5-0.6c0.4-0.4,0.5-0.8,0.5-1.4c0-0.6-0.2-1-0.5-1.3c-0.3-0.3-0.8-0.6-1.4-0.6
				c-0.4,0-1.4-0.1-3.1-0.1H297.5z M297.5,463.3v4.8h3.3c1.3,0,2.1,0,2.5-0.1c0.5-0.1,1-0.3,1.3-0.7c0.3-0.4,0.5-0.9,0.5-1.5
				c0-0.5-0.1-1-0.4-1.4c-0.3-0.4-0.6-0.6-1.1-0.8c-0.5-0.2-1.6-0.3-3.2-0.3H297.5z"></path>
			<path d="M322.8,467.9v3.2h-12c0.1-1.2,0.5-2.3,1.2-3.4c0.7-1.1,1.9-2.5,3.9-4.3c1.5-1.4,2.5-2.4,2.8-2.9c0.5-0.7,0.7-1.4,0.7-2.1
				c0-0.8-0.2-1.4-0.6-1.8c-0.4-0.4-1-0.6-1.7-0.6c-0.7,0-1.3,0.2-1.7,0.6c-0.4,0.4-0.7,1.1-0.7,2.1l-3.4-0.3
				c0.2-1.9,0.8-3.2,1.9-4.1c1.1-0.8,2.4-1.2,4-1.2c1.8,0,3.2,0.5,4.2,1.4c1,1,1.5,2.1,1.5,3.6c0,0.8-0.1,1.6-0.4,2.3
				c-0.3,0.7-0.7,1.5-1.4,2.3c-0.4,0.5-1.2,1.3-2.2,2.3c-1.1,1-1.8,1.7-2.1,2c-0.3,0.3-0.5,0.6-0.7,1H322.8z"></path>
		</g>
		<g id="_x33__7_">
			<path d="M359.2,401.1c0-2.6,0.4-4.7,1.1-6.4c0.6-1.3,1.3-2.4,2.3-3.4c1-1,2.1-1.8,3.2-2.3c1.6-0.7,3.4-1,5.4-1
				c3.7,0,6.6,1.1,8.9,3.4c2.2,2.3,3.3,5.5,3.3,9.6c0,4-1.1,7.2-3.3,9.5c-2.2,2.3-5.1,3.4-8.8,3.4c-3.7,0-6.7-1.1-8.9-3.4
				C360.3,408.2,359.2,405.1,359.2,401.1z M364.4,400.9c0,2.8,0.7,5,2,6.5c1.3,1.5,3,2.2,5,2.2s3.7-0.7,5-2.2
				c1.3-1.5,1.9-3.6,1.9-6.5c0-2.9-0.6-5-1.9-6.4c-1.3-1.4-2.9-2.1-5-2.1s-3.8,0.7-5,2.1C365,395.9,364.4,398,364.4,400.9z"></path>
			<path d="M387.4,413.4v-25.1h10.6c2.7,0,4.6,0.2,5.8,0.7c1.2,0.5,2.2,1.3,2.9,2.4c0.7,1.2,1.1,2.5,1.1,3.9c0,1.9-0.6,3.4-1.7,4.7
				c-1.1,1.2-2.8,2-5,2.3c1.1,0.6,2,1.3,2.7,2.1s1.7,2.1,2.9,4.1l3.1,4.9h-6.1l-3.7-5.5c-1.3-1.9-2.2-3.2-2.7-3.7s-1-0.9-1.5-1
				c-0.5-0.2-1.4-0.3-2.5-0.3h-1v10.5H387.4z M392.5,399h3.7c2.4,0,3.9-0.1,4.5-0.3c0.6-0.2,1.1-0.6,1.4-1.1
				c0.3-0.5,0.5-1.1,0.5-1.9c0-0.8-0.2-1.5-0.7-2s-1.1-0.8-1.9-1c-0.4-0.1-1.6-0.1-3.7-0.1h-3.9V399z"></path>
			<path d="M411.7,401.1c0-2.6,0.4-4.7,1.1-6.4c0.6-1.3,1.3-2.4,2.3-3.4c1-1,2.1-1.8,3.2-2.3c1.6-0.7,3.4-1,5.4-1
				c3.7,0,6.6,1.1,8.9,3.4c2.2,2.3,3.3,5.5,3.3,9.6c0,4-1.1,7.2-3.3,9.5c-2.2,2.3-5.1,3.4-8.8,3.4c-3.7,0-6.7-1.1-8.9-3.4
				C412.8,408.2,411.7,405.1,411.7,401.1z M416.9,400.9c0,2.8,0.7,5,2,6.5c1.3,1.5,3,2.2,5,2.2c2,0,3.7-0.7,5-2.2
				c1.3-1.5,1.9-3.6,1.9-6.5c0-2.9-0.6-5-1.9-6.4c-1.3-1.4-2.9-2.1-5-2.1c-2.1,0-3.8,0.7-5,2.1C417.5,395.9,416.9,398,416.9,400.9z"></path>
		</g>
		<line id="STAGE_00000009547695750859290010000008181431731103116201_" class="st13" x1="308" y1="335.5" x2="308" y2="335.5"></line>
		<line id="CENTER_00000083800623083499481650000006030893513581099192_" class="st13" x1="308" y1="542.5" x2="308" y2="542.5"></line>
		<line id="D_00000062889524274387152430000000907699087078655928_" class="st13" x1="384.3" y1="542.5" x2="384.3" y2="542.5"></line>
		<line id="C_00000152963382267356842380000000195130432877689513_" class="st13" x1="231.2" y1="542.5" x2="231.2" y2="542.5"></line>
		<line id="B_00000082345299681302365270000002183180126064619698_" class="st13" x1="384.2" y1="335.5" x2="384.2" y2="335.5"></line>
		<line id="A_00000054231057981183945880000011397291629980544955_" class="st13" x1="231.2" y1="335.5" x2="231.2" y2="335.5"></line>
	<label class="idBloque">146606</label><label class="nombreBloque">B2</label></g>
	<g class="">
		<polygon id="B1" class=" ORO chunkMap" points="130.5,511.7 220.6,542.5 
			220.5,337 130.5,306.1 		"></polygon>
		<g id="_x32__00000041983572795022586280000005326832332458328730_">
			<path d="M157.6,436.2h7.2c1.4,0,2.5,0.1,3.2,0.2c0.7,0.1,1.3,0.4,1.9,0.7c0.5,0.4,1,0.9,1.4,1.5c0.4,0.6,0.5,1.3,0.5,2.1
				c0,0.8-0.2,1.6-0.7,2.3c-0.5,0.7-1.1,1.2-1.8,1.6c1.1,0.3,1.9,0.9,2.5,1.6s0.9,1.7,0.9,2.7c0,0.8-0.2,1.6-0.6,2.4
				c-0.4,0.8-0.9,1.4-1.6,1.8c-0.7,0.5-1.5,0.7-2.4,0.8c-0.6,0.1-2.1,0.1-4.4,0.1h-6.1V436.2z M161.2,439.2v4.1h2.4
				c1.4,0,2.3,0,2.6-0.1c0.6-0.1,1.1-0.3,1.5-0.6c0.4-0.4,0.5-0.8,0.5-1.4c0-0.6-0.2-1-0.5-1.3c-0.3-0.3-0.8-0.6-1.4-0.6
				c-0.4,0-1.4-0.1-3.1-0.1H161.2z M161.2,446.3v4.8h3.3c1.3,0,2.1,0,2.5-0.1c0.5-0.1,1-0.3,1.3-0.7c0.3-0.4,0.5-0.9,0.5-1.5
				c0-0.5-0.1-1-0.4-1.4c-0.3-0.4-0.6-0.6-1.1-0.8c-0.5-0.2-1.6-0.3-3.2-0.3H161.2z"></path>
			<path d="M183.6,454.1h-3.4v-12.9c-1.3,1.2-2.7,2-4.4,2.6v-3.1c0.9-0.3,1.9-0.8,2.9-1.7c1-0.8,1.8-1.8,2.2-2.9h2.8V454.1z"></path>
		</g>
		
			<line id="STAGE_00000173882584621258925370000017044864447334706084_" class="st11" x1="175.6" y1="336.8" x2="175.6" y2="336.8"></line>
		<line id="CENTER_00000052785519412489550010000011176789312545491861_" class="st11" x1="175.6" y1="542" x2="175.6" y2="542"></line>
		<line id="D_00000017518928584372445250000016209461389208941477_" class="st11" x1="220.5" y1="542" x2="220.5" y2="542"></line>
		<line id="C_00000088102675945666617870000013863501333530035350_" class="st11" x1="130.5" y1="542" x2="130.5" y2="542"></line>
		<line id="B_00000039825215413143852100000009127507281191322784_" class="st11" x1="220.4" y1="336.8" x2="220.4" y2="336.8"></line>
		<line id="A_00000038382427818404276590000016644032880244363705_" class="st11" x1="130.5" y1="336.8" x2="130.5" y2="336.8"></line>
	<label class="idBloque">146605</label><label class="nombreBloque">B1</label></g>
<label>35536</label></g>
<g id="VIP">
	<g id="" class="">
		<polygon id="A4" class=" VIP chunkMap" points="579.6,330.2 666.6,296.7 666.6,74.8 579.4,108.3 		"></polygon>
		<g id="_x32__12_">
			<path d="M628.4,235.6h-3.9l-1.6-4.1h-7.2l-1.5,4.1h-3.8l7-17.9h3.8L628.4,235.6z M621.8,228.5l-2.5-6.6l-2.4,6.6H621.8z"></path>
			<path d="M636.3,235.6V232H629v-3l7.8-11.4h2.9V229h2.2v3h-2.2v3.6H636.3z M636.3,229v-6.1l-4.1,6.1H636.3z"></path>
		</g>
		<line id="STAGE_00000182512665609424052820000003717670032983229853_" class="st15" x1="623.2" y1="99.2" x2="623.2" y2="99.2"></line>
		
			<line id="CENTER_00000072253678683922887740000006232097401497917319_" class="st15" x1="623.2" y1="330.3" x2="623.2" y2="330.3"></line>
		<line id="D_00000003080638009559998980000004145424920504030613_" class="st15" x1="666.6" y1="330.3" x2="666.6" y2="330.3"></line>
		<line id="C_00000094591671716673185550000003422165099403270017_" class="st15" x1="579.5" y1="330.3" x2="579.5" y2="330.3"></line>
		<line id="B_00000078747444728127847420000012638522959958100412_" class="st15" x1="666.6" y1="99.2" x2="666.6" y2="99.2"></line>
		<line id="A_00000036252066818922152930000002324761240013404818_" class="st15" x1="579.5" y1="99.2" x2="579.5" y2="99.2"></line>
	<label class="idBloque">146604</label><label class="nombreBloque">A4</label></g>
	<g id="" class="">
		
			<rect id="A3" x="412.8" y="100.3" class=" VIP chunkMap" width="152.8" height="230.5"></rect>
		<g id="_x32__00000119093186187956210500000004730739802707162295_">
			<path d="M493.5,251.6h-3.9l-1.6-4.1h-7.2l-1.5,4.1h-3.8l7-17.9h3.8L493.5,251.6z M486.9,244.5l-2.5-6.6l-2.4,6.6H486.9z"></path>
			<path d="M494.6,246.9l3.3-0.4c0.1,0.8,0.4,1.5,0.9,1.9c0.5,0.4,1,0.7,1.7,0.7c0.7,0,1.3-0.3,1.8-0.8c0.5-0.5,0.7-1.3,0.7-2.2
				c0-0.9-0.2-1.5-0.7-2.1c-0.5-0.5-1-0.8-1.7-0.8c-0.4,0-1,0.1-1.6,0.3l0.4-2.8c0.9,0,1.6-0.2,2.1-0.6c0.5-0.4,0.7-1,0.7-1.7
				c0-0.6-0.2-1.1-0.5-1.4c-0.4-0.4-0.8-0.5-1.4-0.5c-0.6,0-1.1,0.2-1.5,0.6c-0.4,0.4-0.7,1-0.8,1.8l-3.2-0.5c0.2-1.1,0.6-1.9,1-2.6
				c0.4-0.6,1.1-1.2,1.9-1.5c0.8-0.4,1.7-0.6,2.7-0.6c1.7,0,3,0.5,4.1,1.6c0.8,0.9,1.3,1.9,1.3,3c0,1.6-0.9,2.8-2.6,3.8
				c1,0.2,1.8,0.7,2.5,1.5c0.6,0.8,0.9,1.7,0.9,2.8c0,1.6-0.6,2.9-1.7,4c-1.1,1.1-2.6,1.7-4.3,1.7c-1.6,0-3-0.5-4-1.4
				C495.3,249.6,494.7,248.4,494.6,246.9z"></path>
		</g>
		
			<line id="STAGE_00000070840564412827438160000003026699947893947321_" class="st16" x1="489.5" y1="101.7" x2="489.5" y2="101.7"></line>
		
			<line id="CENTER_00000070814695599809588300000009638591459098502571_" class="st16" x1="489.5" y1="330.9" x2="489.5" y2="330.9"></line>
		<line id="D_00000150085545198869066870000016118042596515094664_" class="st16" x1="565.6" y1="330.9" x2="565.6" y2="330.9"></line>
		<line id="C_00000116931899364052360940000007433386616275610276_" class="st16" x1="412.9" y1="330.9" x2="412.9" y2="330.9"></line>
		<line id="B_00000119112417607897076470000014227879112545939856_" class="st16" x1="565.5" y1="101.7" x2="565.5" y2="101.7"></line>
		<line id="A_00000077315985354080796810000009167725214797853359_" class="st16" x1="412.8" y1="101.7" x2="412.8" y2="101.7"></line>
	<label class="idBloque">146603</label><label class="nombreBloque">A3</label></g>
	<g id="" class="">
		<rect id="A2" x="231.5" y="99.6" class=" VIP chunkMap" width="152.8" height="231.3"></rect>
		<g id="_x32__6_">
			<path d="M309.9,253.4h-3.9l-1.6-4.1h-7.2l-1.5,4.1h-3.8l7-18.2h3.8L309.9,253.4z M303.2,246.2l-2.5-6.8l-2.4,6.8H303.2z"></path>
			<path d="M322.6,250.2v3.2h-12c0.1-1.2,0.5-2.4,1.2-3.5c0.7-1.1,1.9-2.6,3.9-4.4c1.5-1.5,2.5-2.5,2.8-3c0.5-0.7,0.7-1.4,0.7-2.1
				c0-0.8-0.2-1.4-0.6-1.8c-0.4-0.4-1-0.6-1.7-0.6c-0.7,0-1.3,0.2-1.7,0.7c-0.4,0.4-0.7,1.2-0.7,2.2l-3.4-0.3
				c0.2-1.9,0.8-3.3,1.9-4.1s2.4-1.3,4-1.3c1.8,0,3.2,0.5,4.2,1.5c1,1,1.5,2.2,1.5,3.6c0,0.8-0.1,1.6-0.4,2.3
				c-0.3,0.7-0.7,1.5-1.4,2.3c-0.4,0.5-1.2,1.3-2.2,2.3c-1.1,1-1.8,1.7-2.1,2c-0.3,0.3-0.5,0.7-0.7,1H322.6z"></path>
		</g>
		<g id="_x33__6_">
			<path d="M380.9,182l-8.8-25.1h5.4l6.2,18.5l6-18.5h5.3l-8.8,25.1H380.9z"></path>
			<path d="M397.4,182V157h5V182H397.4z"></path>
			<path d="M407.2,182V157h8c3,0,5,0.1,5.9,0.4c1.4,0.4,2.6,1.2,3.5,2.5c1,1.3,1.4,2.9,1.4,4.9c0,1.5-0.3,2.8-0.8,3.9
				c-0.5,1-1.2,1.9-2.1,2.5c-0.8,0.6-1.7,1-2.6,1.2c-1.2,0.2-2.9,0.4-5.2,0.4h-3.2v9.5H407.2z M412.1,161.2v7.1h2.7
				c2,0,3.3-0.1,3.9-0.4c0.7-0.3,1.2-0.7,1.6-1.2c0.4-0.6,0.6-1.2,0.6-1.9c0-0.9-0.3-1.7-0.8-2.3c-0.5-0.6-1.2-1-2-1.1
				c-0.6-0.1-1.8-0.2-3.6-0.2H412.1z"></path>
		</g>
		
			<line id="STAGE_00000168837164195394465450000001966243474708223921_" class="st17" x1="307.9" y1="101.7" x2="307.9" y2="101.7"></line>
		
			<line id="CENTER_00000111906112403271255770000016430452172165920154_" class="st17" x1="307.9" y1="330.9" x2="307.9" y2="330.9"></line>
		<line id="D_00000098181756234653139010000006740113638594197142_" class="st17" x1="383.9" y1="330.9" x2="383.9" y2="330.9"></line>
		<line id="C_00000146489547678245075550000006799203318690324386_" class="st17" x1="231.5" y1="330.9" x2="231.5" y2="330.9"></line>
		<line id="B_00000158026964314467136510000013172596846991218309_" class="st17" x1="383.8" y1="101.7" x2="383.8" y2="101.7"></line>
		<line id="A_00000107551295393469931220000005472111968405406637_" class="st17" x1="231.5" y1="101.7" x2="231.5" y2="101.7"></line>
	<label class="idBloque">146602</label><label class="nombreBloque">A2</label></g>
	<g id="" class="">
		<polygon id="A1" class=" VIP chunkMap" points="130.5,297.4 220.6,330.9 
			220.5,109 130.5,75.1 		"></polygon>
		<g id="_x32__00000181778363495055681810000006158982198585953961_">
			<path d="M172.6,235.6h-3.9l-1.6-4.1H160l-1.5,4.1h-3.8l7-17.9h3.8L172.6,235.6z M166,228.5l-2.5-6.6l-2.4,6.6H166z"></path>
			<path d="M182.6,235.6h-3.4v-12.9c-1.3,1.2-2.7,2-4.4,2.6v-3.1c0.9-0.3,1.9-0.8,2.9-1.7c1-0.8,1.8-1.8,2.2-2.9h2.8V235.6z"></path>
		</g>
		
			<line id="STAGE_00000014613329640761042800000000636638103415048834_" class="st18" x1="175.6" y1="101.7" x2="175.6" y2="101.7"></line>
		
			<line id="CENTER_00000044868705588922218780000008917454576985873305_" class="st18" x1="175.6" y1="330.8" x2="175.6" y2="330.8"></line>
		<line id="D_00000064318144447062844830000015179962265999923878_" class="st18" x1="220.5" y1="330.8" x2="220.5" y2="330.8"></line>
		<line id="C_00000080202920140246105960000017426210825100096421_" class="st18" x1="130.5" y1="330.8" x2="130.5" y2="330.8"></line>
		<line id="B_00000023977967656500650330000017665601792497799301_" class="st18" x1="220.4" y1="101.7" x2="220.4" y2="101.7"></line>
		<line id="A_00000041296290107828357950000001346300663141940649_" class="st18" x1="130.5" y1="101.7" x2="130.5" y2="101.7"></line>
	<label class="idBloque">146601</label><label class="nombreBloque">A1</label></g>
<label>35535</label></g>
<g id="ESCENARIO">
	<line id="CENTER_16_" class="st1" x1="399" y1="44.3" x2="399" y2="44.3"></line>
	<rect id="_x31__15_" x="245.1" y="14.6" class="st19" width="306" height="61.1"></rect>
	<g id="_x32__14_">
		<g>
			<path class="st20" d="M320.2,56.2V37.7H334v3.1h-10v4.1h9.3v3.1H324v5h10.3v3.1H320.2z"></path>
			<path class="st20" d="M336.5,50.2l3.6-0.4c0.2,1.2,0.7,2.1,1.3,2.7c0.7,0.6,1.6,0.9,2.7,0.9c1.2,0,2.1-0.3,2.7-0.8
				c0.6-0.5,0.9-1.1,0.9-1.8c0-0.4-0.1-0.8-0.4-1.1c-0.3-0.3-0.7-0.6-1.3-0.8c-0.4-0.2-1.4-0.4-3-0.8c-2-0.5-3.4-1.1-4.2-1.8
				c-1.1-1-1.7-2.3-1.7-3.7c0-0.9,0.3-1.8,0.8-2.6c0.5-0.8,1.3-1.4,2.3-1.9c1-0.4,2.2-0.6,3.6-0.6c2.3,0,4.1,0.5,5.2,1.5
				c1.2,1,1.8,2.4,1.8,4.1l-3.7,0.2c-0.2-1-0.5-1.6-1-2.1c-0.5-0.4-1.3-0.6-2.4-0.6c-1.1,0-1.9,0.2-2.5,0.7
				c-0.4,0.3-0.6,0.7-0.6,1.1c0,0.4,0.2,0.8,0.6,1.1c0.5,0.4,1.6,0.8,3.4,1.2c1.8,0.4,3.2,0.9,4,1.3c0.9,0.5,1.6,1.1,2,1.9
				s0.7,1.8,0.7,2.9c0,1.1-0.3,2.1-0.9,3c-0.6,0.9-1.4,1.6-2.5,2.1c-1.1,0.4-2.4,0.7-4,0.7c-2.3,0-4.1-0.5-5.4-1.6
				C337.5,53.8,336.8,52.3,336.5,50.2z"></path>
			<path class="st20" d="M366.5,49.4l3.6,1.1c-0.6,2-1.5,3.5-2.8,4.5c-1.3,1-2.9,1.5-4.9,1.5c-2.5,0-4.5-0.8-6.1-2.5
				c-1.6-1.7-2.4-4-2.4-6.9c0-3.1,0.8-5.5,2.4-7.2c1.6-1.7,3.7-2.6,6.3-2.6c2.3,0,4.1,0.7,5.5,2c0.8,0.8,1.5,1.9,1.9,3.4l-3.7,0.9
				c-0.2-1-0.7-1.7-1.4-2.3c-0.7-0.6-1.5-0.8-2.5-0.8c-1.4,0-2.5,0.5-3.3,1.5c-0.9,1-1.3,2.6-1.3,4.8c0,2.3,0.4,4,1.3,5
				c0.8,1,1.9,1.5,3.3,1.5c1,0,1.8-0.3,2.6-0.9C365.7,51.8,366.2,50.8,366.5,49.4z"></path>
			<path class="st20" d="M373.4,56.2V37.7h13.7v3.1h-10v4.1h9.3v3.1h-9.3v5h10.3v3.1H373.4z"></path>
			<path class="st20" d="M390.6,56.2V37.7h3.6l7.6,12.4V37.7h3.5v18.5h-3.7l-7.5-12.1v12.1H390.6z"></path>
			<path class="st20" d="M426,56.2h-4.1l-1.6-4.2h-7.4l-1.5,4.2h-4l7.2-18.5h3.9L426,56.2z M419.1,48.9l-2.5-6.9l-2.5,6.9H419.1z"></path>
			<path class="st20" d="M427.9,56.2V37.7h7.9c2,0,3.4,0.2,4.3,0.5c0.9,0.3,1.6,0.9,2.2,1.8c0.5,0.8,0.8,1.8,0.8,2.9
				c0,1.4-0.4,2.5-1.2,3.4c-0.8,0.9-2,1.5-3.7,1.7c0.8,0.5,1.5,1,2,1.6c0.5,0.6,1.2,1.6,2.1,3l2.3,3.6h-4.5l-2.7-4
				c-1-1.4-1.6-2.3-2-2.7c-0.4-0.4-0.7-0.6-1.1-0.8c-0.4-0.1-1-0.2-1.9-0.2h-0.8v7.7H427.9z M431.7,45.5h2.8c1.8,0,2.9-0.1,3.4-0.2
				c0.4-0.2,0.8-0.4,1-0.8c0.3-0.4,0.4-0.8,0.4-1.4c0-0.6-0.2-1.1-0.5-1.5c-0.3-0.4-0.8-0.6-1.4-0.7c-0.3,0-1.2-0.1-2.7-0.1h-2.9
				V45.5z"></path>
			<path class="st20" d="M446.5,56.2V37.7h3.7v18.5H446.5z"></path>
			<path class="st20" d="M453,47.1c0-1.9,0.3-3.5,0.8-4.7c0.4-0.9,1-1.8,1.7-2.5c0.7-0.7,1.5-1.3,2.4-1.7c1.2-0.5,2.5-0.7,4-0.7
				c2.7,0,4.9,0.8,6.5,2.5c1.6,1.7,2.5,4,2.5,7.1c0,3-0.8,5.3-2.4,7c-1.6,1.7-3.8,2.5-6.5,2.5c-2.8,0-4.9-0.8-6.6-2.5
				C453.8,52.3,453,50,453,47.1z M456.9,46.9c0,2.1,0.5,3.7,1.5,4.8c1,1.1,2.2,1.6,3.7,1.6c1.5,0,2.7-0.5,3.7-1.6
				c1-1.1,1.4-2.7,1.4-4.8c0-2.1-0.5-3.7-1.4-4.7c-0.9-1-2.2-1.6-3.7-1.6s-2.8,0.5-3.7,1.6C457.3,43.2,456.9,44.8,456.9,46.9z"></path>
		</g>
	</g>
</g>

</svg>