<?xml version="1.0" encoding="UTF-8"?>
<svg id="Capa_1" data-name="Capa 1" xmlns="http://www.w3.org/2000/svg" version="1.1" viewBox="0 0 1200 1200">
  <defs>
    <style>
      .cls-1 {
        fill: #6FAE9C;
        stroke-width: 0px;
      }
    </style>
  </defs>
  <path class="cls-1" d="M393.1,666.4c-36.4,0-65.8-29.5-65.8-65.8s29.5-65.8,65.8-65.8h414.8c36.4,0,65.8,29.5,65.8,65.8s-29.5,65.8-65.8,65.8h-414.8Z"/>
  <path class="cls-1" d="M600.5,1185c-322.3,0-584.5-262.2-584.5-584.5S278.2,16,600.5,16s584.5,262.2,584.5,584.5-262.2,584.5-584.5,584.5ZM600.5,147.7c-249.7,0-452.9,203.1-452.9,452.8s203.1,452.8,452.8,452.8,452.8-203.1,452.8-452.8-203.1-452.8-452.8-452.8h.1Z"/>
</svg>